<?xml version="1.0" encoding="UTF-8" standalone="no"?>
<!DOCTYPE svg  PUBLIC '-//W3C//DTD SVG 1.1//EN'  'http://www.w3.org/Graphics/SVG/1.1/DTD/svg11.dtd'>
<svg xmlns="http://www.w3.org/2000/svg">
<defs>
<font id="Dosis-Light" horiz-adv-x="488">
<font-face underline-position="-25" font-weight="300" descent="-200" panose-1="2 1 3 3 2 2 2 6 0 3" units-per-em="1000" unicode-range="U+000D-00FE" bbox="-42 -235 738 1025" x-height="472" underline-thickness="26" font-family="Dosis" ascent="800" cap-height="731"/>
<missing-glyph horiz-adv-x="1000"/>
<glyph glyph-name=".notdef" horiz-adv-x="1000"/>
<glyph glyph-name=".null" horiz-adv-x="0"/>
<glyph glyph-name="nonmarkingreturn" horiz-adv-x="0" unicode=""/>
<glyph glyph-name="space" horiz-adv-x="200" unicode=" "/>
<glyph glyph-name="exclam" horiz-adv-x="198" unicode="!" d="M99 76q17 0 28.5 -12t11.5 -29t-11.5 -29t-28.5 -12t-28.5 12t-11.5 29t11.5 29t28.5 12zM131 712q0 -131 -6 -269t-6 -269q0 -9 -7 -14t-14 -5q-8 0 -14 5t-6 14q0 131 -5.5 269t-5.5 269q0 17 8.5 25.5t22.5 8.5t23.5 -8.5t9.5 -25.5z"/>
<glyph glyph-name="quotedbl" horiz-adv-x="262" unicode='&quot;' d="M193 768q9 0 18.5 -5.5t9.5 -13.5l-10 -150q0 -8 -4.5 -14.5t-13.5 -6.5q-10 0 -14 6.5t-4 14.5l-10 150q0 8 9.5 13.5t18.5 5.5zM68 768q9 0 19 -5.5t10 -13.5l-10 -150q0 -8 -4.5 -14.5t-14.5 -6.5t-13.5 6.5t-3.5 14.5l-10 150q0 8 9 13.5t18 5.5z"/>
<glyph glyph-name="numbersign" horiz-adv-x="563" unicode="#" d="M203 301h130l26 169h-130zM238 713q12 0 18.5 -7t6.5 -17l-28 -179h131l30 190q2 13 18 13q12 0 18.5 -7t6.5 -17l-28 -179h103q7 0 14 -5.5t7 -14.5q0 -8 -5 -14t-11 -6h-114l-27 -169h103q8 0 15 -5.5t7 -15.5q0 -8 -5 -13.5t-12 -5.5h-115l-31 -209q-2 -8 -8 -12.5 t-14 -4.5q-10 0 -16.5 6t-6.5 18l31 202h-130l-32 -208q-2 -10 -8 -14t-12 -4q-10 0 -17 6t-7 18l30 202h-100q-21 0 -21 20q0 8 4.5 14t11.5 6h113l25 169h-101q-21 0 -21 20q0 8 4.5 14t11.5 6h113l30 190q2 13 18 13z"/>
<glyph glyph-name="dollar" horiz-adv-x="489" unicode="$" d="M107 557q0 -33 11 -55t29 -37t42 -25.5t50 -19.5v252q-26 -2 -49.5 -8.5t-42 -20t-29.5 -34.5t-11 -52zM394 194q0 36 -9.5 61.5t-25.5 43.5t-37 30.5t-45 22.5v-297q57 8 87 43t30 96zM237 4q-48 0 -84.5 12t-61 28.5t-37.5 34t-13 29.5q0 10 7.5 19t15.5 9t17 -13 t27 -28.5t48.5 -29t80.5 -13.5v315q-33 11 -64.5 23t-57 32t-41 51t-15.5 79q0 47 16 78.5t41.5 50.5t57.5 27.5t63 10.5v31q0 7 6 12.5t15 5.5q8 0 14 -5.5t6 -12.5v-30q28 -1 54.5 -6t47 -12.5t33 -17.5t12.5 -20q0 -8 -6.5 -18.5t-16.5 -10.5q-6 0 -15 5t-23.5 12 t-35.5 12.5t-50 7.5v-266q31 -11 60.5 -25.5t52.5 -37.5t37.5 -58t14.5 -87q0 -45 -12 -79t-34 -57.5t-52 -37.5t-67 -18v-40q0 -7 -6 -12.5t-14 -5.5q-9 0 -15 5.5t-6 12.5v38z"/>
<glyph glyph-name="percent" horiz-adv-x="748" unicode="%" d="M569 768q8 0 15.5 -6t7.5 -17q0 -5 -3 -11l-384 -744q-6 -13 -20 -13q-8 0 -14.5 5.5t-6.5 13.5q0 7 2 11l387 751q2 6 6.5 8t9.5 2zM664 261q0 38 -20.5 55t-57.5 17q-36 0 -56.5 -17t-20.5 -55v-154q0 -38 20.5 -55t56.5 -17q37 0 57.5 17t20.5 55v154zM586 -3 q-25 0 -47 6t-38 19t-25 34t-9 51v154q0 30 9 50.5t25 34t38 19.5t47 6t47 -6t38 -19.5t25 -34t9 -50.5v-154q0 -30 -9 -51t-25 -34t-38 -19t-47 -6zM240 621q0 38 -20.5 55t-57.5 17q-36 0 -56.5 -17t-20.5 -55v-154q0 -38 20.5 -55t56.5 -17q37 0 57.5 17t20.5 55v154z M162 357q-25 0 -47 6t-38 19t-25 34t-9 51v154q0 30 9 50.5t25 34t38 19.5t47 6t47 -6t38 -19.5t25 -34t9 -50.5v-154q0 -30 -9 -51t-25 -34t-38 -19t-47 -6z"/>
<glyph glyph-name="ampersand" horiz-adv-x="602" unicode="&amp;" d="M269 37q60 0 98 25t61 64l-223 240q-18 -10 -38.5 -23.5t-37.5 -32t-28.5 -44.5t-11.5 -60q0 -33 12 -64t34.5 -54t56 -37t77.5 -14zM261 -10q-54 0 -95.5 17t-70 46t-43 67.5t-14.5 80.5q0 39 12 70.5t31.5 56t44 42.5t50.5 29q-15 18 -30 38t-26.5 42t-19 47t-7.5 55 q0 40 14 71t37.5 52.5t55 32.5t66.5 11q40 0 69.5 -11t48.5 -25.5t28 -30t9 -24.5q0 -10 -6.5 -16.5t-16.5 -6.5q-9 0 -16.5 11t-20.5 24.5t-34.5 24.5t-56.5 11q-58 0 -90.5 -35t-32.5 -93q0 -54 27.5 -95.5t63.5 -80.5l213 -236q23 52 29.5 105t7.5 90q0 24 23 24 q21 0 21 -29q0 -14 -1.5 -39t-6.5 -56t-14.5 -64.5t-25.5 -65.5l94 -103q6 -7 6 -12q0 -9 -7.5 -15t-15.5 -6t-15 7l-86 92q-30 -45 -78.5 -74t-120.5 -29z"/>
<glyph glyph-name="quotesingle" horiz-adv-x="138" unicode="&apos;" d="M68 768q9 0 19 -5.5t10 -13.5l-10 -150q0 -8 -4.5 -14.5t-14.5 -6.5t-13.5 6.5t-3.5 14.5l-10 150q0 8 9 13.5t18 5.5z"/>
<glyph glyph-name="parenleft" horiz-adv-x="289" unicode="(" d="M245 -20q-39 0 -72 11t-57 32.5t-37.5 52.5t-13.5 71v440q0 36 14 69t38 58t57 39.5t71 14.5q12 0 18 -7t6 -16q0 -10 -6 -17t-14 -7q-32 0 -56.5 -11.5t-41.5 -30.5t-26 -43t-9 -49v-440q0 -37 12.5 -60.5t32 -36.5t43 -18t45.5 -5q12 0 16 -7.5t4 -15.5q0 -24 -24 -24z "/>
<glyph glyph-name="parenright" horiz-adv-x="289" unicode=")" d="M45 -20q-25 0 -25 24q0 8 4.5 15.5t16.5 7.5q22 0 45.5 5t43 18t32 36.5t12.5 60.5v440q0 25 -9 49t-26 43t-41.5 30.5t-56.5 11.5q-8 0 -14.5 7t-6.5 17q0 9 6.5 16t17.5 7q39 0 72 -14.5t57 -39.5t37.5 -58t13.5 -69v-440q0 -40 -13.5 -71t-37 -52.5t-56.5 -32.5 t-72 -11z"/>
<glyph glyph-name="asterisk" horiz-adv-x="422" unicode="*" d="M326 429q3 -5 3 -11q0 -10 -7.5 -16.5t-17.5 -6.5q-3 0 -7.5 1.5t-7.5 6.5l-78 114l-78 -115q-6 -7 -14 -7t-17 5.5t-9 16.5q0 6 5 13l82 109l-131 38q-13 4 -13 20q0 9 6 17t16 8q4 0 6 -2l130 -45l-5 135q0 11 7 16t15 5t15 -5t7 -16l-5 -136l130 46q6 2 7 2 q9 0 15 -8.5t6 -16.5q0 -16 -14 -20l-130 -37z"/>
<glyph glyph-name="plus" horiz-adv-x="428" unicode="+" d="M214 59q-10 0 -16.5 6t-6.5 15v138h-138q-20 0 -20 22q0 10 5.5 16.5t14.5 6.5h138v137q0 8 6.5 15t16.5 7q11 0 17 -7t6 -15v-137h136q8 0 15 -6.5t7 -16.5t-7 -16t-15 -6h-136v-138q0 -9 -6 -15t-17 -6z"/>
<glyph glyph-name="comma" horiz-adv-x="166" unicode="," d="M82 76q15 0 28 -11t13 -31q0 -3 -0.5 -7.5t-4 -15t-10.5 -30t-20 -50.5q-5 -11 -17 -11q-8 0 -14 4t-6 12q0 5 1 9l19 51q-13 4 -21 14.5t-8 24.5q0 17 11.5 29t28.5 12z"/>
<glyph glyph-name="hyphen" horiz-adv-x="400" unicode="-" d="M49 240q0 10 6 16.5t15 6.5h260q8 0 14.5 -6.5t6.5 -16.5t-6.5 -16t-14.5 -6h-260q-9 0 -15 6t-6 16z"/>
<glyph glyph-name="period" horiz-adv-x="165" unicode="." d="M83 76q16 0 28 -12t12 -29t-12 -29t-28 -12q-18 0 -29.5 12t-11.5 29t11.5 29t29.5 12z"/>
<glyph glyph-name="slash" horiz-adv-x="470" unicode="/" d="M426 768q8 0 15.5 -6t7.5 -17q0 -6 -4 -11l-383 -744q-7 -13 -21 -13q-8 0 -14 5.5t-6 13.5q0 7 2 11l386 751q5 10 17 10z"/>
<glyph glyph-name="zero" horiz-adv-x="527" unicode="0" d="M264 395q14 0 23.5 -9.5t9.5 -23.5t-9.5 -24t-23.5 -10q-15 0 -24.5 10t-9.5 24t9.5 23.5t24.5 9.5zM415 521q0 84 -40 123t-112 39t-111.5 -39t-39.5 -123v-317q0 -84 39.5 -123t111.5 -39t112 39t40 123v317zM263 -6q-43 0 -79.5 11.5t-63.5 36.5t-42.5 65t-15.5 97 v317q0 57 15.5 97t42.5 65t63.5 36.5t79.5 11.5q42 0 79 -11.5t64.5 -36.5t43 -65t15.5 -97v-317q0 -57 -15.5 -97t-43 -65t-64.5 -36.5t-79 -11.5z"/>
<glyph glyph-name="one" horiz-adv-x="220" unicode="1" d="M98 629l-42 -72q-7 -13 -18 -13q-10 0 -16 7t-6 16q0 5 4.5 13.5t7.5 12.5l74 122q4 7 9 11.5t15 4.5q8 0 15 -5t7 -16v-688q0 -11 -8 -16.5t-17 -5.5q-10 0 -17.5 5.5t-7.5 16.5v607z"/>
<glyph glyph-name="two" horiz-adv-x="468" unicode="2" d="M54 570q0 34 13.5 63.5t38 51t57.5 34t72 12.5q43 0 78.5 -15t61 -41t39.5 -60t14 -73q0 -54 -25.5 -96.5t-63 -77.5t-82 -65.5t-82 -59.5t-63 -59t-25.5 -65v-71h330q8 0 14 -7t6 -17q0 -9 -6 -16.5t-14 -7.5h-356q-8 0 -16 5.5t-8 16.5v97q0 42 25.5 76.5t63 66t82 62 t82 63t63 70t25.5 83.5q0 25 -8.5 51t-26.5 46t-45.5 33t-64.5 13q-56 0 -92.5 -31.5t-36.5 -94.5q0 -8 -6.5 -14.5t-20.5 -6.5q-12 0 -17.5 7.5t-5.5 26.5z"/>
<glyph glyph-name="three" horiz-adv-x="480" unicode="3" d="M230 42q74 0 114 38.5t40 121.5v19q0 72 -41 107t-110 35q-11 0 -16.5 7.5t-5.5 15.5q0 9 5 16t16 7q33 0 58 7t42 23t25.5 42t8.5 64q0 69 -30.5 104t-99.5 35q-43 0 -70 -12t-42 -30t-20 -38.5t-5 -36.5q0 -28 -25 -28q-14 0 -19.5 7t-5.5 27q0 19 7.5 46t28.5 52 t58 42.5t96 17.5q39 0 71.5 -9.5t56 -30t36 -54t12.5 -81.5q0 -71 -24.5 -112t-58.5 -58q45 -19 73.5 -58t28.5 -107v-19q0 -57 -16 -96.5t-43 -64t-63.5 -36t-78.5 -11.5q-51 0 -89 15t-63 38t-37.5 52t-12.5 56q0 18 6 24.5t17 6.5q15 0 20.5 -7t5.5 -17q0 -16 6.5 -36.5 t23 -39t46 -31.5t74.5 -13z"/>
<glyph glyph-name="four" horiz-adv-x="429" unicode="4" d="M288 175h-257q-11 0 -16.5 6.5t-5.5 15.5q0 7 4 15l254 502q5 9 11.5 13t13.5 4q8 0 16 -6t8 -15q0 -6 -3 -12l-240 -474h215v215q0 11 8 15.5t17 4.5q10 0 17.5 -4.5t7.5 -15.5v-215h57q11 0 16.5 -7.5t5.5 -16.5q0 -10 -5.5 -17.5t-16.5 -7.5h-57v-153 q0 -11 -7.5 -16.5t-17.5 -5.5q-9 0 -17 5.5t-8 16.5v153z"/>
<glyph glyph-name="five" horiz-adv-x="467" unicode="5" d="M232 424q42 0 79 -11t64 -35t42.5 -62.5t15.5 -93.5v-19q0 -57 -15.5 -97t-43 -64.5t-64.5 -36t-79 -11.5q-48 0 -85 13.5t-63 36t-39.5 53t-13.5 64.5q0 14 7 20t17 6q26 0 26 -22q0 -29 12 -52t32.5 -39t48 -24t58.5 -8q72 0 112 39t40 122v19q0 80 -40 118t-111 38 h-137q-19 0 -24 6t-5 14q0 2 0.5 9t0.5 9l19 293q2 22 19 22h273q10 0 14.5 -7.5t4.5 -16.5t-4.5 -16.5t-14.5 -7.5h-245l-18 -259h117z"/>
<glyph glyph-name="six" horiz-adv-x="511" unicode="6" d="M113 202q0 -83 39.5 -122t111.5 -39t111.5 39t39.5 122v27q0 83 -40 118t-111 35q-69 0 -110 -32.5t-41 -111.5v-36zM268 428q42 0 78 -9.5t62.5 -32.5t41.5 -61t15 -95v-26q0 -57 -15.5 -97t-42.5 -65t-63.5 -36.5t-79.5 -11.5q-42 0 -79 11.5t-64.5 36.5t-43 65 t-15.5 97v317q0 57 15.5 97t43 65t64.5 36.5t80 11.5q48 0 85 -14t62.5 -37t39 -53.5t13.5 -63.5q0 -14 -6.5 -19.5t-16.5 -5.5t-18.5 5.5t-8.5 17.5q0 28 -12 50.5t-32.5 38.5t-48 24.5t-58.5 8.5q-72 0 -111.5 -39t-39.5 -123v-164q26 37 66.5 54t88.5 17z"/>
<glyph glyph-name="seven" horiz-adv-x="450" unicode="7" d="M433 631q0 -9 -6 -18l-308 -602q-7 -12 -18 -12q-12 0 -21 6t-9 17q0 3 4 13l308 597v51h-303v-123q0 -9 -7.5 -15.5t-17.5 -6.5q-11 0 -18 6.5t-7 15.5v149q0 8 7.5 15t16.5 7h355q8 0 16 -7t8 -15v-78z"/>
<glyph glyph-name="eight" horiz-adv-x="494" unicode="8" d="M247 685q-63 0 -97.5 -30t-34.5 -101t34.5 -102t97.5 -31t98 31t35 102t-35 101t-98 30zM398 215q0 83 -40 121t-111 38t-111 -38t-40 -121v-13q0 -83 40.5 -122.5t111.5 -39.5t110.5 40t39.5 122v13zM247 731q39 0 72.5 -8.5t58 -29t38.5 -54t14 -82.5q0 -66 -24 -104 t-63 -55q48 -20 76.5 -64t28.5 -122v-12q0 -56 -15.5 -95t-42.5 -64t-63.5 -36t-79.5 -11q-42 0 -79 11t-64 36t-42.5 64t-15.5 95v12q0 78 29 122t77 64q-39 17 -63 55t-24 104q0 49 14 82.5t38.5 54t57.5 29t72 8.5z"/>
<glyph glyph-name="nine" horiz-adv-x="510" unicode="9" d="M398 523q0 83 -40 122t-112 39q-71 0 -110.5 -39t-39.5 -122v-27q0 -83 40 -118t111 -35q69 0 110 32.5t41 111.5v36zM242 297q-41 0 -77 9.5t-62.5 32.5t-41.5 61t-15 95v26q0 57 15.5 97t42.5 65t63.5 36.5t78.5 11.5q43 0 80 -11.5t64 -36.5t42.5 -65t15.5 -97v-317 q0 -57 -15.5 -97t-42.5 -65t-64 -36.5t-80 -11.5q-48 0 -85.5 14t-63 37t-38.5 53.5t-13 63.5q0 25 23 25q10 0 18 -5.5t8 -17.5q0 -28 12 -50.5t33 -38.5t48.5 -24.5t58.5 -8.5q72 0 111.5 39t39.5 123v164q-26 -37 -66.5 -54t-89.5 -17z"/>
<glyph glyph-name="colon" horiz-adv-x="199" unicode=":" d="M100 422q16 0 28 -12t12 -29t-12 -29t-28 -12q-18 0 -29.5 12t-11.5 29t11.5 29t29.5 12zM100 76q16 0 28 -12t12 -29t-12 -29t-28 -12q-18 0 -29.5 12t-11.5 29t11.5 29t29.5 12z"/>
<glyph glyph-name="semicolon" horiz-adv-x="202" unicode=";" d="M103 422q16 0 28 -12t12 -29t-12 -29t-28 -12q-18 0 -29.5 12t-11.5 29t11.5 29t29.5 12zM100 76q15 0 28 -11t13 -31q0 -3 -0.5 -7.5t-4 -15t-10.5 -30t-20 -50.5q-5 -11 -17 -11q-8 0 -14 4t-6 12q0 5 1 9l19 51q-13 4 -21 14.5t-8 24.5q0 17 11.5 29t28.5 12z"/>
<glyph glyph-name="less" horiz-adv-x="396" unicode="&lt;" d="M27 277q0 16 13 23l272 180q4 4 10 4q9 0 17 -6.5t8 -17.5t-10 -18l-248 -165l248 -164q10 -7 10 -18t-8 -17.5t-17 -6.5q-6 0 -10 4l-272 180q-13 7 -13 22z"/>
<glyph glyph-name="equal" horiz-adv-x="433" unicode="=" d="M70 374q0 10 6 17t15 7h251q8 0 14.5 -7t6.5 -17t-6.5 -16t-14.5 -6h-251q-9 0 -15 6t-6 16zM70 171q0 10 6 17t15 7h251q8 0 14.5 -7t6.5 -17t-6.5 -16t-14.5 -6h-251q-9 0 -15 6t-6 16z"/>
<glyph glyph-name="greater" horiz-adv-x="396" unicode="&gt;" d="M369 277q0 -15 -13 -22l-272 -180q-5 -4 -11 -4q-8 0 -16 6.5t-8 17.5t10 18l248 164l-248 165q-10 7 -10 18t8 17.5t16 6.5q6 0 11 -4l272 -180q5 -3 9 -9.5t4 -13.5z"/>
<glyph glyph-name="question" horiz-adv-x="391" unicode="?" d="M165 76q17 0 28.5 -12t11.5 -29t-11.5 -29t-28.5 -12t-28.5 12t-11.5 29t11.5 29t28.5 12zM355 566q0 -49 -16 -85t-38 -63t-45.5 -47.5t-38.5 -38.5q-11 -13 -17 -28t-9 -33.5t-3.5 -42t-0.5 -53.5q0 -20 -22 -20q-9 0 -15 5t-6 18q0 43 2.5 72.5t7.5 49.5t12 33t16 23 q16 18 38 37t41.5 43t33.5 54.5t14 72.5q0 65 -35.5 102t-107.5 37q-32 0 -52.5 -7t-33.5 -15.5t-21 -15.5t-15 -7t-13.5 6t-6.5 16q0 11 11.5 23t31.5 21.5t46.5 16t56.5 6.5q47 0 81.5 -14t57.5 -38.5t34.5 -57.5t11.5 -70z"/>
<glyph glyph-name="at" horiz-adv-x="710" unicode="@" d="M451 228h-44q-33 0 -61 -2t-48.5 -10t-32 -23t-11.5 -40q0 -36 24 -52t59 -16q27 0 48.5 7.5t36 19.5t22 26t7.5 28v62zM234 372q0 9 11.5 17t29 14t39.5 9.5t43 3.5q66 0 101.5 -33t35.5 -93v-165q2 -22 21 -36.5t40 -14.5t35 15t21.5 38t10.5 50.5t3 53.5 q0 131 -65 206t-198 75q-75 0 -125.5 -24.5t-81 -65t-44 -93.5t-13.5 -110q0 -53 12 -102.5t39.5 -87.5t72 -61t109.5 -23q34 0 58 5t41 10.5t27.5 10.5t17.5 5q8 0 13 -6t5 -11q0 -9 -15 -18.5t-38.5 -18t-53.5 -13.5t-60 -5q-52 0 -100.5 18.5t-86 56.5t-60 97.5 t-22.5 141.5q0 69 17 130.5t54.5 107.5t95.5 72.5t141 26.5q146 0 223.5 -81.5t77.5 -238.5q0 -38 -5.5 -73.5t-18.5 -63.5t-35 -44.5t-55 -16.5q-37 0 -63 19t-33 43q-26 -26 -51.5 -39t-69.5 -13q-26 0 -49 5.5t-40 18t-27 33t-10 50.5q0 34 13.5 55.5t38.5 34t61.5 17 t81.5 4.5h46v20q0 45 -24.5 66.5t-78.5 21.5q-24 0 -39.5 -3.5t-25.5 -8t-16.5 -8t-12.5 -3.5q-9 0 -14 8t-5 14z"/>
<glyph glyph-name="A" horiz-adv-x="530" unicode="A" d="M395 220l-129 427l-132 -427h261zM51 0q-10 0 -19 5.5t-9 16.5q0 4 1 6l214 691q6 18 28 18q9 0 17 -4.5t11 -13.5l212 -691q0 -2 0.5 -3t0.5 -3q0 -9 -9 -15.5t-20 -6.5q-16 0 -20 15l-49 159h-288l-48 -159q-5 -15 -22 -15z"/>
<glyph glyph-name="B" horiz-adv-x="532" unicode="B" d="M129 419h135q38 0 66.5 7t47 23.5t27.5 43t9 66.5q0 39 -11.5 63t-32 37.5t-48.5 18.5t-62 5h-131v-264zM281 48q71 0 111 37.5t40 120.5v17q0 41 -10.5 69.5t-30 46.5t-47.5 26t-63 8h-152v-325h152zM79 709q0 11 7.5 16.5t16.5 5.5h156q43 0 80.5 -6.5t65 -25 t43.5 -51.5t16 -85q0 -65 -23.5 -107.5t-61.5 -59.5q23 -10 42 -24t32.5 -34.5t21 -48.5t7.5 -67v-18q0 -57 -15 -96t-41.5 -63t-62.5 -34.5t-78 -10.5h-182q-11 0 -17.5 6.5t-6.5 14.5v688z"/>
<glyph glyph-name="C" horiz-adv-x="517" unicode="C" d="M425 557q-1 17 -7 39t-22 41.5t-45 32.5t-75 13q-75 0 -114.5 -39t-39.5 -123v-317q0 -85 39.5 -123.5t117.5 -38.5q47 0 74.5 13t42.5 32t20.5 41t8.5 41q1 9 6 15t18 6t19.5 -6.5t6.5 -27.5q0 -31 -13.5 -60.5t-39 -52t-63 -36t-86.5 -13.5q-41 0 -77.5 11.5t-64 36.5 t-43.5 65t-16 97v317q0 57 16.5 97t44 65t64.5 36.5t79 11.5q48 0 85.5 -13.5t62.5 -36t38 -52t13 -60.5q0 -20 -6.5 -26.5t-18.5 -6.5q-15 0 -20 6.5t-5 14.5z"/>
<glyph glyph-name="D" horiz-adv-x="554" unicode="D" d="M129 683v-635h151q72 0 112 39t40 123v311q0 84 -40 123t-112 39h-151zM280 731q42 0 79 -11.5t64.5 -36.5t43 -65t15.5 -97v-311q0 -57 -15.5 -97t-43 -65t-64.5 -36.5t-79 -11.5h-177q-11 0 -17.5 6.5t-6.5 14.5v689q0 8 6.5 14.5t17.5 6.5h177z"/>
<glyph glyph-name="E" horiz-adv-x="503" unicode="E" d="M129 389h159q10 0 15.5 -7t5.5 -17q0 -8 -5 -15t-16 -7h-159v-295h330q10 0 15.5 -7.5t5.5 -17.5q0 -8 -5 -15.5t-16 -7.5h-356q-9 0 -16.5 5.5t-7.5 16.5v687q0 11 7.5 16.5t16.5 5.5h356q11 0 16 -7.5t5 -15.5q0 -10 -5.5 -17.5t-15.5 -7.5h-330v-294z"/>
<glyph glyph-name="F" horiz-adv-x="492" unicode="F" d="M79 709q0 11 7.5 16.5t16.5 5.5h355q11 0 16 -7.5t5 -15.5q0 -10 -5.5 -17.5t-15.5 -7.5h-329v-294h159q10 0 15.5 -7t5.5 -17q0 -8 -5 -15t-16 -7h-159v-322q0 -11 -7.5 -16t-17.5 -5q-9 0 -17 5t-8 16v688z"/>
<glyph glyph-name="G" horiz-adv-x="536" unicode="G" d="M425 557q-8 63 -47 94.5t-105 31.5q-72 0 -111.5 -39t-39.5 -123v-317q0 -84 39.5 -123t111.5 -39t112 39t40 123v134h-148q-10 0 -15 7.5t-5 15.5t5 15.5t15 7.5h177q10 0 15.5 -7t5.5 -16v-157q0 -57 -15.5 -97t-43 -65t-64.5 -36.5t-79 -11.5q-43 0 -79.5 11.5 t-63.5 36.5t-42.5 65t-15.5 97v317q0 57 15.5 97t42.5 65t63.5 36.5t78.5 11.5q47 0 84.5 -13t64 -35.5t40.5 -53.5t14 -67q0 -14 -7 -20t-18 -6q-10 0 -17 5t-8 16z"/>
<glyph glyph-name="H" horiz-adv-x="563" unicode="H" d="M434 356h-305v-334q0 -11 -7.5 -16.5t-17.5 -5.5q-9 0 -17 5.5t-8 16.5v688q0 11 8 16t17 5q10 0 17.5 -5t7.5 -16v-308h305v308q0 11 8 16t17 5q10 0 17.5 -5t7.5 -16v-688q0 -11 -7.5 -16.5t-17.5 -5.5q-9 0 -17 5.5t-8 16.5v334z"/>
<glyph glyph-name="I" horiz-adv-x="208" unicode="I" d="M79 710q0 11 8 16t17 5q10 0 17.5 -5t7.5 -16v-688q0 -11 -7.5 -16.5t-17.5 -5.5q-9 0 -17 5.5t-8 16.5v688z"/>
<glyph glyph-name="J" horiz-adv-x="503" unicode="J" d="M227 683q-11 0 -16 7.5t-5 17.5q0 8 5 15.5t16 7.5h176q9 0 16.5 -5.5t7.5 -16.5v-505q0 -57 -15.5 -97t-42.5 -65t-63.5 -36.5t-78.5 -11.5q-47 0 -84.5 13t-64 35.5t-40.5 54t-14 67.5q0 15 7 20.5t18 5.5q9 0 17 -5t8 -16q1 -63 43.5 -95t108.5 -32q72 0 111.5 39 t39.5 123v479h-150z"/>
<glyph glyph-name="K" horiz-adv-x="514" unicode="K" d="M79 710q0 11 8 16t17 5q10 0 17.5 -5t7.5 -16v-374l307 387q3 5 7.5 6.5t9.5 1.5q10 0 18.5 -8t8.5 -18q0 -8 -5 -12l-223 -278l252 -380q4 -4 4 -11q0 -10 -8.5 -17.5t-19.5 -7.5q-12 0 -19 12l-242 362l-90 -112v-239q0 -11 -7.5 -16.5t-17.5 -5.5q-9 0 -17 5.5 t-8 16.5v688z"/>
<glyph glyph-name="L" horiz-adv-x="457" unicode="L" d="M103 0q-9 0 -16.5 5.5t-7.5 16.5v688q0 11 8 16t17 5q10 0 17.5 -5t7.5 -16v-662h295q10 0 14.5 -7.5t4.5 -16.5t-4.5 -16.5t-14.5 -7.5h-321z"/>
<glyph glyph-name="M" horiz-adv-x="659" unicode="M" d="M352 277q-6 -11 -12.5 -16t-10.5 -5q-13 0 -23 21l-177 341v-596q0 -11 -7.5 -16.5t-17.5 -5.5q-9 0 -17 5.5t-8 16.5v685q0 14 7.5 19t17.5 5q13 0 24 -14t18 -27l183 -358l184 358q7 13 17.5 27t24.5 14q10 0 17.5 -5t7.5 -19v-685q0 -11 -8 -16.5t-17 -5.5 q-10 0 -17.5 5.5t-7.5 16.5v595z"/>
<glyph glyph-name="N" horiz-adv-x="563" unicode="N" d="M459 0q-11 0 -20 12t-16 25l-294 576v-591q0 -11 -7.5 -16.5t-17.5 -5.5q-9 0 -17 5.5t-8 16.5v688q0 12 7.5 16.5t17.5 4.5q14 0 24 -14t17 -27l289 -571v591q0 11 8 16t17 5q10 0 17.5 -5t7.5 -16v-688q0 -11 -7.5 -16.5t-17.5 -5.5z"/>
<glyph glyph-name="O" horiz-adv-x="547" unicode="O" d="M425 521q0 84 -40 123t-112 39t-111.5 -39t-39.5 -123v-317q0 -84 39.5 -123t111.5 -39t112 39t40 123v317zM273 -6q-43 0 -79.5 11.5t-63.5 36.5t-42.5 65t-15.5 97v317q0 57 15.5 97t42.5 65t63.5 36.5t79.5 11.5q42 0 79 -11.5t64.5 -36.5t43 -65t15.5 -97v-317 q0 -57 -15.5 -97t-43 -65t-64.5 -36.5t-79 -11.5z"/>
<glyph glyph-name="P" horiz-adv-x="519" unicode="P" d="M129 683v-336h152q72 0 112 39.5t40 123.5v11q0 84 -40 123t-112 39h-152zM79 710q0 19 23 21h180q42 0 79 -11.5t64 -36t42.5 -64.5t15.5 -97v-11q0 -57 -15.5 -97t-43 -65t-64.5 -36.5t-79 -11.5h-152v-279q0 -11 -7.5 -16.5t-17.5 -5.5q-9 0 -17 5.5t-8 16.5v688z"/>
<glyph glyph-name="Q" horiz-adv-x="547" unicode="Q" d="M425 521q0 84 -40 123t-112 39t-111.5 -39t-39.5 -123v-317q0 -78 33.5 -117t96.5 -44v79q0 11 7 16t15 5t14.5 -5t6.5 -16v-78q61 5 95.5 44t34.5 116v317zM274 -109q-8 0 -15 5.5t-7 16.5v82q-39 2 -72 14.5t-57 37.5t-37.5 64t-13.5 93v317q0 57 15.5 97t42.5 65 t63.5 36.5t79.5 11.5q42 0 79 -11.5t64.5 -36.5t43 -65t15.5 -97v-317q0 -54 -13.5 -92.5t-37.5 -63.5t-57 -38t-72 -15v-82q0 -11 -6.5 -16.5t-14.5 -5.5z"/>
<glyph glyph-name="R" horiz-adv-x="516" unicode="R" d="M129 683v-296h143q36 0 65.5 8t50.5 26t33 46.5t12 68.5t-12 68t-33 45.5t-50.5 25.5t-65.5 8h-143zM79 710q0 8 5.5 14.5t16.5 6.5h171q42 0 80.5 -9.5t67.5 -32t46 -60t17 -92.5q0 -47 -12.5 -81t-34.5 -57t-52 -35.5t-64 -17.5l160 -310q3 -6 3 -12q0 -10 -7 -17.5 t-20 -7.5q-9 0 -17 12t-14 23l-157 307h-139v-319q0 -11 -7.5 -16.5t-17.5 -5.5q-9 0 -17 5.5t-8 16.5v688z"/>
<glyph glyph-name="S" horiz-adv-x="487" unicode="S" d="M233 42q77 0 118 37.5t41 112.5q0 45 -14.5 74.5t-38 49t-53.5 32t-61.5 23.5t-61.5 24t-53.5 33t-38 50.5t-14.5 76.5q0 54 19.5 88.5t49.5 54t66 27t69 7.5q30 0 59 -4.5t52 -12.5t37.5 -18.5t14.5 -21.5q0 -8 -6.5 -18.5t-16.5 -10.5q-6 0 -16.5 6t-27 13t-40.5 13 t-57 6q-28 0 -55.5 -5.5t-49 -20t-35 -38.5t-13.5 -61q0 -50 25 -77t62 -44t80.5 -30t80.5 -36.5t62 -64t25 -110.5q0 -53 -15.5 -91.5t-42.5 -63.5t-64.5 -36.5t-81.5 -11.5q-48 0 -85 11.5t-62.5 28t-38.5 34.5t-13 30q0 10 7.5 19t15.5 9q9 0 18.5 -13t27 -29t47 -29 t78.5 -13z"/>
<glyph glyph-name="T" horiz-adv-x="468" unicode="T" d="M432 731q11 0 16 -7t5 -16t-5 -17t-16 -8h-172v-661q0 -11 -8 -16.5t-17 -5.5q-10 0 -17.5 5.5t-7.5 16.5v661h-174q-10 0 -15.5 7.5t-5.5 16.5t5.5 16.5t15.5 7.5h396z"/>
<glyph glyph-name="U" horiz-adv-x="557" unicode="U" d="M431 710q0 11 7.5 16t17.5 5q9 0 17 -5t8 -16v-506q0 -57 -15.5 -97t-43 -65t-64.5 -36.5t-80 -11.5t-80 11.5t-64 36.5t-42.5 65t-15.5 97v506q0 11 8 16t17 5q10 0 17.5 -5t7.5 -16v-506q0 -84 40 -123t112 -39t112.5 39t40.5 123v506z"/>
<glyph glyph-name="V" horiz-adv-x="528" unicode="V" d="M23 703q-1 2 -1 6q0 11 9 16.5t19 5.5q17 0 22 -15l193 -632l192 632q4 15 20 15q11 0 20 -6.5t9 -15.5q0 -2 -0.5 -3t-0.5 -3l-212 -691q-2 -9 -10.5 -13.5t-17.5 -4.5q-22 0 -28 18z"/>
<glyph glyph-name="W" horiz-adv-x="762" unicode="W" d="M541 12q-3 -9 -11.5 -13.5t-17.5 -4.5t-17 4.5t-10 13.5l-103 374l-103 -374q-2 -9 -10 -13.5t-18 -4.5t-18 4.5t-10 13.5l-198 691q-1 3 -1 7q0 10 8.5 15.5t18.5 5.5q8 0 14.5 -3.5t8.5 -11.5l177 -632l102 379q2 10 10 15t17 5q8 0 16.5 -5t11.5 -15l105 -379l175 632 q2 8 8.5 11.5t14.5 3.5q10 0 18.5 -5.5t8.5 -15.5q0 -4 -1 -7z"/>
<glyph glyph-name="X" horiz-adv-x="465" unicode="X" d="M232 319l-148 -286q-5 -11 -12 -22.5t-18 -11.5q-10 0 -19 7t-9 18q0 3 1 6t3 7l172 329l-169 326q-6 10 -6 19q0 10 8 15.5t20 5.5q11 0 18.5 -11.5t13.5 -23.5l145 -283l146 283q6 11 13.5 23t18.5 12q12 0 20 -5.5t8 -15.5q0 -9 -6 -19l-170 -326l173 -329q2 -4 3 -7 t1 -6q0 -11 -8.5 -18t-19.5 -7t-18 11.5t-12 22.5z"/>
<glyph glyph-name="Y" horiz-adv-x="520" unicode="Y" d="M235 276q0 3 -2 7l-207 407q-5 13 -5 19q0 11 7.5 16.5t16.5 5.5q12 0 23 -18l192 -385l193 385q9 18 23 18q8 0 15 -5.5t7 -16.5q0 -3 -0.5 -8t-3.5 -11l-208 -407q-1 -2 -1 -7v-254q0 -11 -8 -16.5t-17 -5.5q-10 0 -17.5 5.5t-7.5 16.5v254z"/>
<glyph glyph-name="Z" horiz-adv-x="474" unicode="Z" d="M91 48h337q11 0 16 -7.5t5 -16.5t-5 -16.5t-16 -7.5h-381q-21 0 -21 20q0 9 5 17l342 646h-315q-11 0 -16 7.5t-5 16.5t5 16.5t16 7.5h359q21 0 21 -18q0 -11 -6 -21z"/>
<glyph glyph-name="bracketleft" horiz-adv-x="293" unicode="[" d="M121 26h132q8 0 14 -7t6 -17q0 -9 -5.5 -16t-14.5 -7h-158q-9 0 -16.5 5.5t-7.5 15.5v747q0 9 7 15t17 6h158q9 0 14.5 -7t5.5 -16q0 -10 -6 -17t-14 -7h-132v-695z"/>
<glyph glyph-name="backslash" horiz-adv-x="344" unicode="\" d="M28 723q-2 6 -2 8q0 11 7 17t16 6q13 0 18 -11l250 -717q1 -2 1 -7q0 -8 -6.5 -13.5t-14.5 -5.5q-16 0 -20 14z"/>
<glyph glyph-name="bracketright" horiz-adv-x="294" unicode="]" d="M173 721h-132q-9 0 -15 7t-6 17q0 9 6 16t15 7h158q10 0 17 -6t7 -15v-747q0 -10 -7.5 -15.5t-16.5 -5.5h-158q-9 0 -15 7t-6 16q0 10 6 17t15 7h132v695z"/>
<glyph glyph-name="asciicircum" horiz-adv-x="264" unicode="^" d="M28 599l-4 -2t-4 -1q-8 0 -14 6.5t-6 16.5q0 11 11 17l104 56q8 5 17 5t17 -5l104 -55q11 -6 11 -20q0 -8 -5.5 -14t-13.5 -6q-2 0 -4.5 1t-4.5 2l-104 55z"/>
<glyph glyph-name="underscore" horiz-adv-x="342" unicode="_" d="M-10 -23q0 10 6 16.5t15 6.5h320q8 0 14.5 -6.5t6.5 -16.5t-6.5 -16t-14.5 -6h-320q-9 0 -15 6t-6 16z"/>
<glyph glyph-name="grave" horiz-adv-x="143" unicode="`" d="M11 654q-11 7 -11 20q0 8 5.5 15.5t14.5 7.5q3 0 7 -2l107 -61q9 -4 9 -15q0 -9 -6.5 -16t-15.5 -7q-4 0 -10 3z"/>
<glyph glyph-name="a" horiz-adv-x="431" unicode="a" d="M320 220h-49q-37 0 -71 -2.5t-60.5 -12t-42 -28t-15.5 -49.5q0 -47 27.5 -68.5t68.5 -21.5q26 0 51.5 10.5t45.5 27t32.5 35t12.5 35.5v74zM196 478q48 0 81 -16t53.5 -43t29.5 -61.5t9 -71.5v-264q0 -9 -6.5 -15.5t-17.5 -6.5q-10 0 -17 6.5t-7 15.5v48 q-26 -29 -63 -52.5t-87 -23.5q-29 0 -54 8t-44 24.5t-29.5 41t-10.5 58.5q0 40 17 66t47.5 41t73.5 21t95 6h54v26q0 26 -7 52.5t-22 47.5t-39 34t-58 13q-24 0 -41.5 -4.5t-30 -9.5t-20.5 -9.5t-13 -4.5q-11 0 -16.5 9.5t-5.5 17.5t11.5 16.5t30 15t41.5 10.5t46 4z"/>
<glyph glyph-name="b" horiz-adv-x="475" unicode="b" d="M379 295q0 26 -10.5 50.5t-29 44t-43 31t-51.5 11.5q-24 0 -47.5 -9.5t-41.5 -27t-29.5 -43t-11.5 -57.5v-150q0 -12 10 -30t27.5 -34.5t41.5 -28.5t52 -12q27 0 51 11.5t42.5 31t29 44.5t10.5 52v116zM90 766q11 0 18 -6t7 -15v-343q17 29 50 52.5t83 23.5 q37 0 69.5 -14.5t57 -39t39 -58t14.5 -71.5v-116q0 -36 -14.5 -69.5t-39 -59t-56.5 -41t-68 -15.5q-46 0 -82.5 22.5t-53.5 53.5v-48q0 -8 -7 -15t-17 -7q-11 0 -17.5 7t-6.5 15v723q0 9 6.5 15t17.5 6z"/>
<glyph glyph-name="c" horiz-adv-x="406" unicode="c" d="M237 -6q-48 0 -83.5 14t-58.5 38.5t-34.5 58.5t-11.5 74v114q0 39 11 73t34.5 58.5t59 39t83.5 14.5q31 0 56 -6.5t42.5 -15.5t27 -19.5t9.5 -19.5t-6.5 -16.5t-16.5 -7.5q-6 0 -13.5 6t-19.5 13.5t-31 13.5t-47 6q-69 0 -104.5 -37t-35.5 -102v-114q0 -65 35.5 -102 t105.5 -37q30 0 49.5 6t32 13.5t20.5 14t15 6.5q9 0 15.5 -8t6.5 -16q0 -9 -10 -20t-28 -20t-44 -15.5t-59 -6.5z"/>
<glyph glyph-name="d" horiz-adv-x="476" unicode="d" d="M97 179q0 -27 10.5 -52t29 -44.5t42.5 -31t51 -11.5q28 0 52 12t41.5 28.5t27.5 34.5t10 30v150q0 32 -11.5 57.5t-29.5 43t-41.5 27t-47.5 9.5q-28 0 -52.5 -11.5t-42.5 -31t-28.5 -44t-10.5 -50.5v-116zM386 766q11 0 17.5 -6t6.5 -15v-723q0 -8 -6.5 -15t-17.5 -7 q-10 0 -17 7t-7 15v48q-17 -31 -53.5 -53.5t-82.5 -22.5q-36 0 -68 15.5t-56.5 41t-39 59t-14.5 69.5v116q0 38 14.5 71.5t39 58t57 39t69.5 14.5q50 0 83 -23.5t50 -52.5v343q0 9 7 15t18 6z"/>
<glyph glyph-name="e" horiz-adv-x="451" unicode="e" d="M310 261q34 0 45 6.5t11 29.5q0 25 -9.5 50t-27.5 44t-42.5 31t-54.5 12q-29 0 -53.5 -10.5t-42.5 -28.5t-28.5 -42t-10.5 -51v-41h213zM232 478q36 0 69 -13.5t58 -37.5t40 -57.5t15 -72.5q0 -28 -7 -43.5t-19 -23t-27.5 -9t-31.5 -1.5h-232v-42q0 -32 12 -58t33.5 -44 t51 -27.5t64.5 -9.5q31 0 50.5 6t32 13.5t20.5 14t16 6.5q9 0 16 -8t7 -16t-10 -18.5t-28.5 -20t-45.5 -16t-60 -6.5q-46 0 -84 13.5t-65.5 37.5t-43 58t-15.5 76v119q0 37 14.5 69.5t39.5 57t58.5 39t71.5 14.5z"/>
<glyph glyph-name="f" horiz-adv-x="296" unicode="f" d="M115 472h148q9 0 15 -6.5t6 -14.5q0 -9 -6 -15.5t-15 -6.5h-148v-408q0 -10 -7.5 -15.5t-18.5 -5.5q-10 0 -16.5 5.5t-6.5 15.5v564q0 37 14.5 69.5t38.5 57.5t56.5 39.5t68.5 14.5h17q10 0 16.5 -7t6.5 -17t-6.5 -16t-16.5 -6h-13q-29 0 -53 -11t-41.5 -29.5t-28 -42.5 t-10.5 -50v-115z"/>
<glyph glyph-name="g" horiz-adv-x="448" unicode="g" d="M369 -98q0 34 -21.5 51.5t-52.5 25.5t-64 10t-57 5q-19 -6 -36.5 -13.5t-31 -19t-22 -26.5t-8.5 -34q0 -43 39.5 -69.5t110.5 -26.5q69 0 106 26t37 71zM339 314q0 53 -31 88t-88 35t-87.5 -35t-30.5 -88v-40q0 -54 31 -90t88 -36q55 0 86.5 35.5t31.5 89.5v41zM219 107 q-45 0 -79 19q-14 -7 -25 -16.5t-11 -27.5t13.5 -28t35.5 -15t50.5 -7.5t57.5 -6.5t57.5 -10.5t50.5 -20t35.5 -35t13.5 -55.5q0 -68 -52.5 -103.5t-139.5 -35.5q-44 0 -80 9t-62.5 26.5t-41 41.5t-14.5 54q0 45 27.5 71.5t60.5 38.5q-26 8 -42 23.5t-16 46.5q0 28 13 44 t36 27q-25 22 -39 54.5t-14 71.5v41q0 36 12 66t33.5 52t52 34t68.5 12q73 0 118 -45q14 28 34.5 45t38.5 17q14 0 20 -7.5t6 -15.5q0 -9 -5.5 -14t-12.5 -6q-12 -1 -28 -10t-30 -35q14 -18 20 -42.5t6 -50.5v-41q0 -36 -12.5 -66t-34.5 -52.5t-53 -35t-68 -12.5z"/>
<glyph glyph-name="h" d="M115 22q0 -8 -7 -15t-18 -7t-17.5 7t-6.5 15v723q0 9 6.5 15t17.5 6t18 -6t7 -15v-343q16 29 49 52.5t84 23.5q36 0 68.5 -14.5t57 -39t39 -58t14.5 -71.5v-273q0 -11 -8 -16.5t-17 -5.5t-16.5 5.5t-7.5 16.5v273q0 26 -10.5 50.5t-29 44t-43 31t-51.5 11.5 q-24 0 -47 -9.5t-41.5 -27t-29.5 -43t-11 -57.5v-273z" unicode="h"/>
<glyph glyph-name="i" horiz-adv-x="181" unicode="i" d="M90 693q15 0 26 -10.5t11 -24.5q0 -15 -11 -26t-26 -11q-17 0 -27.5 11t-10.5 26q0 14 10.5 24.5t27.5 10.5zM90 472q11 0 18 -5.5t7 -14.5v-430q0 -8 -7 -15t-18 -7t-17.5 7t-6.5 15v430q0 9 6.5 14.5t17.5 5.5z"/>
<glyph glyph-name="j" horiz-adv-x="181" unicode="j" d="M90 472q11 0 18 -5.5t7 -14.5v-498q0 -42 -6.5 -76.5t-21.5 -59.5t-39.5 -39t-59.5 -14q-12 0 -18.5 7.5t-6.5 16.5q0 10 6.5 16t16.5 6q26 0 42 11t24.5 30t11 45t2.5 57v498q0 9 6.5 14.5t17.5 5.5zM90 693q15 0 26 -10.5t11 -24.5q0 -15 -11 -26t-26 -11 q-17 0 -27.5 11t-10.5 26q0 14 10.5 24.5t27.5 10.5z"/>
<glyph glyph-name="k" horiz-adv-x="445" unicode="k" d="M249 299l180 -264q3 -5 3 -11q0 -9 -7.5 -17t-17.5 -8t-17 10l-176 258l-99 -86v-159q0 -8 -7 -15t-18 -7t-17.5 7t-6.5 15v723q0 9 6.5 15t17.5 6t18 -6t7 -15v-503l258 226q5 5 12 5q9 0 17.5 -6t8.5 -17q0 -10 -7 -16z"/>
<glyph glyph-name="l" horiz-adv-x="197" unicode="l" d="M98 766q11 0 18 -6t7 -15v-723q0 -8 -7 -15t-18 -7t-17.5 7t-6.5 15v723q0 9 6.5 15t17.5 6z"/>
<glyph glyph-name="m" horiz-adv-x="774" unicode="m" d="M364 299q0 28 -9.5 52.5t-26 42.5t-39 28t-47.5 10q-24 0 -46.5 -9.5t-40.5 -27t-29 -43t-11 -57.5v-273q0 -8 -7 -15t-18 -7t-17.5 7t-6.5 15v430q0 9 6.5 14.5t17.5 5.5q10 0 17 -5.5t7 -14.5v-50q17 29 50 52.5t84 23.5t88.5 -27.5t57.5 -72.5q26 51 67 75.5t85 24.5 q32 0 62 -12t53 -35.5t37 -57.5t14 -78v-273q0 -8 -7 -15t-18 -7q-10 0 -17 7t-7 15v273q0 34 -11 59.5t-28.5 43t-39.5 26t-44 8.5q-24 0 -46.5 -9.5t-40.5 -26.5t-29 -41.5t-11 -54.5v-279q0 -11 -7.5 -16t-17.5 -5q-8 0 -16 5t-8 16v278z"/>
<glyph glyph-name="n" d="M115 22q0 -8 -7 -15t-18 -7t-17.5 7t-6.5 15v430q0 9 6.5 14.5t17.5 5.5q10 0 17 -5.5t7 -14.5v-50q16 29 49.5 52.5t84.5 23.5q36 0 68.5 -14.5t57 -39t39 -58t14.5 -71.5v-273q0 -11 -8 -16.5t-17 -5.5t-16.5 5.5t-7.5 16.5v273q0 26 -10.5 50.5t-29 44t-43 31 t-51.5 11.5q-24 0 -47 -9.5t-41.5 -27t-29.5 -43t-11 -57.5v-273z" unicode="n"/>
<glyph glyph-name="o" horiz-adv-x="461" unicode="o" d="M365 295q0 26 -10.5 50.5t-29 44t-43 31t-52.5 11.5t-52.5 -11.5t-42.5 -31t-28.5 -44t-10.5 -50.5v-116q0 -27 10.5 -52t28.5 -44.5t42.5 -31t52.5 -11.5t52.5 11.5t43 31t29 44.5t10.5 52v116zM230 478q37 0 70 -14.5t58.5 -39t40.5 -58t15 -71.5v-116q0 -36 -15 -69.5 t-40.5 -59t-58.5 -41t-70 -15.5t-70 15t-58 40.5t-40 59t-15 70.5v116q0 37 14.5 70t39.5 58t58 40t71 15z"/>
<glyph glyph-name="p" horiz-adv-x="475" unicode="p" d="M379 295q0 26 -10.5 50.5t-29 44t-43 31t-52.5 11.5q-24 0 -47 -9.5t-41.5 -27t-29.5 -43t-11 -57.5v-150q0 -12 10 -30t27.5 -34.5t41.5 -28.5t52 -12q27 0 51 11.5t42 31t29 44.5t11 52v116zM90 472q10 0 17 -5.5t7 -14.5v-50q17 29 50 52.5t84 23.5q37 0 69.5 -14.5 t57 -39t39 -58t14.5 -71.5v-116q0 -36 -14.5 -69.5t-39 -59t-56.5 -41t-68 -15.5q-46 0 -82 22.5t-53 53.5v-283q0 -8 -7 -15t-18 -7t-17.5 7t-6.5 15v665q0 9 6.5 14.5t17.5 5.5z"/>
<glyph glyph-name="q" horiz-adv-x="476" unicode="q" d="M97 179q0 -27 11 -52t29 -44.5t42 -31t51 -11.5q28 0 52 12t41.5 28.5t27.5 34.5t10 30v150q0 32 -11 57.5t-29.5 43t-42 27t-47.5 9.5q-27 0 -51.5 -11.5t-43 -31t-29 -44t-10.5 -50.5v-116zM386 472q11 0 17.5 -5.5t6.5 -14.5v-665q0 -8 -6.5 -15t-17.5 -7t-18 7t-7 15 v283q-17 -31 -53.5 -53.5t-81.5 -22.5q-36 0 -68 15.5t-56.5 41t-39 59t-14.5 69.5v116q0 38 14.5 71.5t39 58t57 39t69.5 14.5q50 0 83.5 -23.5t50.5 -52.5v50q0 9 7 14.5t17 5.5z"/>
<glyph glyph-name="r" horiz-adv-x="319" unicode="r" d="M250 432q-26 0 -50 -10t-43 -29t-30.5 -46t-11.5 -61v-264q0 -8 -7 -15t-18 -7t-17.5 7t-6.5 15v430q0 9 6.5 14.5t17.5 5.5q10 0 17 -5.5t7 -14.5v-51q17 29 51 53t85 24h36q9 0 15.5 -6.5t6.5 -16.5t-6.5 -16.5t-15.5 -6.5h-36z"/>
<glyph glyph-name="s" horiz-adv-x="379" unicode="s" d="M186 38q60 0 85 23t25 54q0 36 -18.5 56t-46 31.5t-60 20t-60 22t-46 36.5t-18.5 65q0 23 8.5 46.5t27 42.5t47 31t69.5 12q23 0 46 -4t41 -10.5t29.5 -14.5t11.5 -16q0 -7 -6.5 -16.5t-15.5 -9.5q-5 0 -14 4t-21.5 9.5t-30 9.5t-39.5 4q-30 0 -50 -8.5t-33 -21 t-18.5 -28t-5.5 -29.5q0 -31 18.5 -47.5t46.5 -26.5t60 -18.5t60 -23.5t46.5 -41t18.5 -72q0 -58 -40.5 -91t-115.5 -33q-35 0 -62.5 7t-47.5 17t-30.5 22t-10.5 22q0 8 5.5 15.5t12.5 7.5t16 -7.5t23 -16t36 -16t57 -7.5z"/>
<glyph glyph-name="t" horiz-adv-x="284" unicode="t" d="M113 143q0 -54 23 -75.5t80 -21.5h25q11 0 17 -6.5t6 -16.5q0 -9 -6 -16t-17 -7h-25q-75 0 -113.5 34t-38.5 109v537q0 9 8 15t16 6q10 0 17.5 -6t7.5 -15v-208h133q8 0 13.5 -6.5t5.5 -15.5q0 -8 -5.5 -14.5t-13.5 -6.5h-133v-286z"/>
<glyph glyph-name="u" d="M244 -6q-38 0 -71.5 15t-58 40t-39 58.5t-14.5 69.5v274q0 8 7 14.5t18 6.5q9 0 16.5 -6.5t7.5 -14.5v-274q0 -26 10.5 -51t28.5 -44t42.5 -30.5t52.5 -11.5t52.5 11.5t42.5 30.5t28.5 43.5t10.5 51.5v275q0 8 7.5 14t17.5 6q11 0 17.5 -6t6.5 -14v-275q0 -37 -14.5 -70 t-39.5 -58t-58.5 -40t-70.5 -15z" unicode="u"/>
<glyph glyph-name="v" horiz-adv-x="407" unicode="v" d="M22 435q-1 2 -2.5 7t-1.5 8q0 10 8.5 16.5t19.5 6.5q6 0 12 -3t8 -9l137 -378l137 372q3 8 6.5 13t13.5 5q9 0 19 -6t10 -16q0 -5 -1.5 -9t-2.5 -7l-158 -428q-7 -14 -24 -14t-23 14z"/>
<glyph glyph-name="w" horiz-adv-x="661" unicode="w" d="M483 7q-6 -14 -20 -14t-20 13l-111 352l-110 -347q-6 -18 -22 -18q-8 0 -13 3.5t-9 14.5l-156 425q-1 2 -2.5 7t-1.5 7q0 10 8.5 16.5t19.5 6.5q14 0 20 -12l135 -375l109 344q4 15 22 15q17 0 21 -15l106 -349l138 380q3 12 19 12q10 0 18.5 -5.5t8.5 -16.5q0 -9 -4 -15 z"/>
<glyph glyph-name="x" horiz-adv-x="394" unicode="x" d="M25 18q0 5 4 11l136 210l-135 204q-3 4 -3 10q0 10 8.5 17.5t19.5 7.5q5 0 9.5 -1.5t7.5 -6.5l125 -192l126 191q6 9 16 9t19 -7t9 -18q0 -6 -3 -10l-136 -205l137 -209q4 -6 4 -11q0 -9 -9 -16.5t-19 -7.5q-11 0 -17 8l-127 196l-126 -196q-8 -8 -18 -8t-19 7t-9 17z "/>
<glyph glyph-name="y" horiz-adv-x="408" unicode="y" d="M19 447q-2 6 -2 8q0 10 9 17t20 7q6 0 11.5 -3.5t7.5 -9.5l141 -385l137 385q6 13 19 13q9 0 18.5 -6.5t9.5 -17.5q0 -5 -1 -8l-158 -431q-14 -39 -31.5 -83t-40 -81.5t-52 -62t-66.5 -24.5q-9 0 -16 5.5t-7 17.5q0 9 4 16t14 7q25 0 46.5 18t39.5 47.5t33 66t26 73.5z "/>
<glyph glyph-name="z" horiz-adv-x="393" unicode="z" d="M347 46q9 0 15 -7t6 -17q0 -9 -6 -15.5t-15 -6.5h-300q-10 0 -16 6t-6 14q0 10 7 19l256 388h-232q-9 0 -15 6.5t-6 15.5q0 10 6 16.5t15 6.5h280q8 0 14.5 -5.5t6.5 -15.5t-6 -17l-257 -388h253z"/>
<glyph glyph-name="braceleft" horiz-adv-x="297" unicode="{" d="M32 384q0 14 9.5 18t20.5 5.5t20.5 4.5t9.5 15q0 7 -3 31.5t-7 53.5t-7 55.5t-3 37.5q0 33 14.5 62.5t39 52t57 35.5t69.5 13q12 0 18.5 -7t6.5 -16t-6 -16t-14 -7q-29 0 -53.5 -10t-42.5 -27t-28.5 -39t-10.5 -46q0 -11 3 -37t7 -54t7 -52.5t3 -31.5q0 -17 -12.5 -28 t-21.5 -13q9 -3 21.5 -13t12.5 -27q0 -9 -3 -38t-7 -63.5t-7 -66.5t-3 -45q0 -31 15 -51t36 -32t44 -17t40 -5q11 0 15.5 -7.5t4.5 -14.5q0 -11 -7 -17.5t-18 -6.5q-37 0 -70 11t-57.5 31t-38.5 47.5t-14 61.5q0 12 3 44t7 66.5t7 63.5t3 37q0 12 -9.5 15t-20.5 4.5t-20.5 5 t-9.5 17.5z"/>
<glyph glyph-name="bar" horiz-adv-x="192" unicode="|" d="M96 768q10 0 17.5 -6t7.5 -15v-747q0 -8 -7.5 -14.5t-17.5 -6.5q-11 0 -18 6.5t-7 14.5v747q0 9 7 15t18 6z"/>
<glyph glyph-name="braceright" horiz-adv-x="297" unicode="}" d="M265 384q0 -14 -9.5 -17.5t-20.5 -5t-20.5 -4.5t-9.5 -15q0 -8 3.5 -37t7 -63.5t7 -66.5t3.5 -44q0 -34 -14 -61.5t-38.5 -47.5t-57.5 -31t-70 -11q-11 0 -18.5 6.5t-7.5 17.5q0 7 4.5 14.5t16.5 7.5q16 0 39.5 5t44.5 17t36 32t15 51q0 13 -3.5 45t-7 66.5t-7 63.5 t-3.5 38q0 17 12 27t22 13q-10 2 -22 13t-12 28q0 7 3.5 31.5t7 52.5t7 54t3.5 37q0 24 -10.5 46t-28.5 39t-43 27t-53 10q-9 0 -15 7t-6 16t7 16t19 7q37 0 69.5 -13t57 -35.5t39 -52t14.5 -62.5q0 -11 -3.5 -37.5t-7 -55.5t-7 -53.5t-3.5 -31.5q0 -12 9.5 -15t20.5 -4.5 t20.5 -5.5t9.5 -18z"/>
<glyph glyph-name="asciitilde" horiz-adv-x="401" unicode="~" d="M136 255q-16 0 -27 -5t-19 -11.5t-13.5 -11.5t-11.5 -5q-8 0 -12 6.5t-4 14.5q0 12 9 21.5t22.5 17t29 11.5t28.5 4q19 0 34 -5.5t29.5 -12.5t30 -12.5t35.5 -5.5q17 0 27 5t17 10.5t12 10.5t11 5q8 0 12.5 -6t4.5 -13q0 -14 -9 -24t-22 -16.5t-27.5 -10t-25.5 -3.5 q-19 0 -34 5.5t-30 12.5t-30.5 12.5t-36.5 5.5z"/>
<glyph glyph-name="uni00A0" horiz-adv-x="200" unicode=" "/>
<glyph glyph-name="exclamdown" horiz-adv-x="198" unicode="¡" d="M99 664q-17 0 -28.5 12t-11.5 29t11.5 29t28.5 12t28.5 -12t11.5 -29t-11.5 -29t-28.5 -12zM67 29q0 130 5.5 268t5.5 269q0 9 7 14t14 5t14 -5t7 -14q0 -131 5.5 -269t5.5 -268q0 -17 -9 -26t-23 -9t-23 9t-9 26z"/>
<glyph glyph-name="cent" horiz-adv-x="408" unicode="¢" d="M84 357q0 -55 25 -90.5t77 -45.5v291q-52 -11 -77 -46.5t-25 -89.5v-19zM207 694q8 0 14.5 -6t6.5 -14v-113q28 0 53 -5.5t44 -13.5t30 -19t11 -22q0 -10 -7 -17t-17 -7q-6 0 -13.5 6t-20 13t-31.5 13.5t-49 6.5v-298q30 0 49.5 6.5t31.5 13.5t19 13t14 6q10 0 17.5 -7 t7.5 -17q0 -12 -12 -23t-31.5 -19t-44.5 -13.5t-51 -5.5v-112q0 -8 -6.5 -14t-14.5 -6q-9 0 -15 6t-6 14v114q-75 11 -111.5 61.5t-36.5 121.5v19q0 35 8.5 66t26.5 55t46 40t67 22v115q0 8 6 14t15 6z"/>
<glyph glyph-name="sterling" horiz-adv-x="473" unicode="£" d="M414 48q9 0 14 -7.5t5 -16.5t-5 -16.5t-14 -7.5h-367q-11 0 -16.5 7.5t-5.5 16.5t5.5 16.5t16.5 7.5h61l44 319h-81q-9 0 -14 6t-5 15t5 16t14 7h88l25 174q5 37 24 70.5t47.5 58.5t64.5 39.5t74 14.5h16q11 0 17 -7.5t6 -16.5q0 -8 -6 -15.5t-17 -7.5h-21 q-30 0 -56.5 -11.5t-47.5 -30t-34.5 -43t-17.5 -51.5l-25 -174h156q10 0 14.5 -7.5t4.5 -15.5t-4.5 -14.5t-14.5 -6.5h-163l-45 -319h258z"/>
<glyph glyph-name="currency" horiz-adv-x="483" unicode="¤" d="M378 472q0 26 -10.5 50.5t-29 44t-43 31t-52.5 11.5t-52.5 -11.5t-42.5 -30.5t-28.5 -44t-10.5 -51q0 -27 10.5 -52t28.5 -44.5t42.5 -31t52.5 -11.5t52.5 11.5t43 31t29 44.5t10.5 52zM243 652q31 0 59 -10.5t51 -29.5l27 27q5 5 14 5q7 0 12.5 -5.5t5.5 -12.5 q0 -8 -5 -13l-28 -28q20 -23 31 -52t11 -61t-11.5 -61t-31.5 -52l29 -29q5 -7 5 -12q0 -7 -5.5 -12.5t-12.5 -5.5q-8 0 -13 5l-28 27q-23 -20 -51 -31t-59 -11q-33 0 -62 12.5t-53 33.5l-32 -31q-5 -5 -12 -5q-8 0 -13.5 5.5t-5.5 12.5t5 12l33 33q-17 23 -27 51t-10 58 t9.5 57.5t26.5 50.5l-26 27q-5 5 -5 13t6 13t14 5q7 0 12 -5l25 -25q23 20 52.5 32t62.5 12z"/>
<glyph glyph-name="yen" horiz-adv-x="490" unicode="¥" d="M77 331q0 22 20 22h107l-177 348q-2 4 -2 8q0 8 7.5 15.5t18.5 7.5q13 0 20 -13l170 -335l179 335q8 13 20 13q9 0 17 -6.5t8 -16.5q0 -4 -2 -8l-186 -348h114q8 0 14.5 -6t6.5 -16q0 -9 -6.5 -15t-14.5 -6h-126v-76h126q8 0 14.5 -6.5t6.5 -15.5q0 -10 -6.5 -15.5 t-14.5 -5.5h-126v-170q0 -9 -6.5 -15t-17.5 -6q-10 0 -17.5 6t-7.5 15v170h-119q-20 0 -20 21q0 9 5.5 15.5t14.5 6.5h119v76h-119q-9 0 -14.5 6t-5.5 15z"/>
<glyph glyph-name="brokenbar" horiz-adv-x="193" unicode="¦" d="M96 297q10 0 17.5 -6t7.5 -14v-277q0 -8 -7.5 -14.5t-17.5 -6.5q-11 0 -17.5 6.5t-6.5 14.5v277q0 8 6.5 14t17.5 6zM96 768q10 0 17.5 -6t7.5 -15v-277q0 -8 -7.5 -14t-17.5 -6q-11 0 -17.5 6t-6.5 14v277q0 9 6.5 15t17.5 6z"/>
<glyph glyph-name="section" horiz-adv-x="463" unicode="§" d="M362 246q0 37 -13.5 60.5t-35 39t-49 25l-55 19t-53 21.5t-43.5 33v-31q0 -38 13.5 -61.5t35 -38.5t49 -24.5l55 -19t53 -22t43.5 -33.5v32zM66 543q0 57 16.5 93.5t41 57.5t54 29t56.5 8q78 0 117 -45t39 -114q0 -16 -7 -21.5t-16 -5.5q-11 0 -18 6t-7 22 q0 15 -4.5 34.5t-16 36.5t-32 29t-53.5 12q-21 0 -43 -7t-39.5 -22.5t-28.5 -42t-11 -65.5q0 -44 22 -68t54.5 -38.5t70.5 -26t70.5 -30t54.5 -51t22 -89.5v-126q0 -50 -14 -85t-38.5 -57t-56.5 -32.5t-68 -10.5q-42 0 -75.5 13t-57 35.5t-36 52.5t-12.5 64q0 14 7 19.5 t18 5.5q12 0 17 -6.5t5 -14.5q0 -16 5 -37t19.5 -40t39 -32.5t63.5 -13.5q65 0 99.5 34t34.5 99q0 44 -21.5 67.5t-54 38t-70.5 26t-70.5 30t-54 51t-21.5 89.5v128z"/>
<glyph glyph-name="dieresis" horiz-adv-x="182" unicode="¨" d="M150 662q14 0 23 -9t9 -23t-9 -23.5t-23 -9.5q-15 0 -24 9.5t-9 23.5t9 23t24 9zM33 662q14 0 23 -9t9 -23t-9 -23.5t-23 -9.5t-23.5 9.5t-9.5 23.5t9.5 23t23.5 9z"/>
<glyph glyph-name="copyright" horiz-adv-x="724" unicode="©" d="M423 464q0 8 -2.5 19t-8.5 20.5t-17.5 16.5t-30.5 7q-61 0 -61 -79v-163q0 -79 62 -79q19 0 30 6.5t17 16.5t8 21.5t3 21.5q1 15 21 15q11 0 16 -5t5 -19q0 -40 -27.5 -67.5t-75.5 -27.5q-41 0 -70.5 26.5t-29.5 90.5v163q0 32 8 54.5t22 36.5t32 20.5t39 6.5 q48 0 75 -27.5t27 -66.5q0 -14 -5 -19t-16 -5q-19 0 -21 16zM630 362q0 62 -19 114t-54 90t-83.5 59t-108.5 21q-59 0 -108.5 -21t-85.5 -59t-56.5 -91t-20.5 -117q0 -62 19 -114t54 -90t83.5 -59t108.5 -21q59 0 108.5 21t85.5 59t56.5 91t20.5 117zM55 358q0 84 29 145.5 t74 102t100 60t107 19.5q53 0 107 -20t98 -60t71.5 -101t27.5 -142q0 -84 -29 -145.5t-74 -102t-100 -60t-107 -19.5q-53 0 -107 20t-98 60t-71.5 101t-27.5 142z"/>
<glyph glyph-name="ordfeminine" horiz-adv-x="311" unicode="ª" d="M215 570h-29q-21 0 -40 -2t-33.5 -7.5t-23 -16t-8.5 -27.5q0 -26 15 -38.5t38 -12.5q15 0 29.5 6t26 16t18.5 21.5t7 22.5v38zM144 735q31 0 53 -10t36 -27t20 -38.5t6 -45.5v-162q0 -7 -6 -12t-16 -5q-8 0 -14 5t-6 12v26q-17 -20 -41 -33.5t-58 -13.5q-33 0 -57 20.5 t-24 61.5q0 26 10.5 43t30 26.5t46.5 13.5t60 4h31v14q0 15 -4 30t-12.5 27t-22.5 19.5t-33 7.5q-32 0 -46.5 -9.5t-21.5 -9.5q-8 0 -12.5 7.5t-4.5 15.5q0 6 8 12t20 10.5t27.5 7.5t30.5 3z"/>
<glyph glyph-name="guillemotleft" horiz-adv-x="381" unicode="«" d="M338 108q3 -5 3 -10q0 -9 -8.5 -16.5t-19.5 -7.5t-18 10l-92 171q-4 6 -6 11t-2 11q0 9 8 22l92 172q7 10 20 10q11 0 18.5 -8t7.5 -16q0 -6 -3 -10l-92 -170zM180 108q3 -5 3 -10q0 -9 -8.5 -16.5t-19.5 -7.5q-12 0 -18 10l-92 171q-4 6 -6 11t-2 11q0 9 8 22l92 172 q7 10 20 10q11 0 18.5 -8t7.5 -16q0 -6 -3 -10l-92 -170z"/>
<glyph glyph-name="logicalnot" horiz-adv-x="483" unicode="¬" d="M58 240q0 10 6 16.5t15 6.5h314q8 0 14.5 -6.5t6.5 -16.5v-156q0 -9 -6.5 -15t-17.5 -6t-18 6t-7 15v134h-286q-9 0 -15 6t-6 16z"/>
<glyph glyph-name="uni00AD" horiz-adv-x="460" unicode="­" d="M49 240q0 10 6 16.5t15 6.5h320q8 0 14.5 -6.5t6.5 -16.5t-6.5 -16t-14.5 -6h-320q-9 0 -15 6t-6 16z"/>
<glyph glyph-name="registered" horiz-adv-x="724" unicode="®" d="M630 362q0 62 -19 114t-54 90t-83.5 59t-108.5 21q-59 0 -108.5 -21t-85.5 -59t-56.5 -91t-20.5 -117q0 -62 19 -114t54 -90t83.5 -59t108.5 -21q59 0 108.5 21t85.5 59t56.5 91t20.5 117zM311 524v-143h60q28 0 45.5 16.5t17.5 54.5q0 39 -17.5 55.5t-45.5 16.5h-60z M270 547q0 13 15 15h86q21 0 39.5 -5.5t33 -18t22.5 -33t8 -50.5q0 -50 -19.5 -73.5t-49.5 -30.5l68 -153q2 -6 2 -7q0 -8 -8 -14.5t-16 -6.5q-6 0 -10 5.5t-7 12.5l-72 158h-51v-160q0 -8 -6 -11.5t-14 -3.5t-14.5 3.5t-6.5 11.5v361zM55 358q0 84 29 145.5t74 102t100 60 t107 19.5q53 0 107 -20t98 -60t71.5 -101t27.5 -142q0 -84 -29 -145.5t-74 -102t-100 -60t-107 -19.5q-53 0 -107 20t-98 60t-71.5 101t-27.5 142z"/>
<glyph glyph-name="macron" horiz-adv-x="260" unicode="¯" d="M0 662q0 9 5.5 15.5t15.5 6.5h217q8 0 15 -6.5t7 -15.5t-7 -14.5t-15 -5.5h-217q-21 0 -21 20z"/>
<glyph glyph-name="degree" horiz-adv-x="425" unicode="°" d="M347 588q0 26 -10.5 50.5t-29 44t-43 31t-52.5 11.5t-52.5 -11.5t-42.5 -30.5t-28.5 -44t-10.5 -51q0 -27 10.5 -52t28.5 -44.5t42.5 -31t52.5 -11.5t52.5 11.5t43 31t29 44.5t10.5 52zM212 768q36 0 68 -14t56.5 -38.5t39 -57.5t14.5 -70q0 -36 -14.5 -68.5t-39 -58 t-56.5 -40.5t-68 -15t-68 15t-56 40t-38.5 58t-14.5 69t14 68.5t38 57.5t56.5 39.5t68.5 14.5z"/>
<glyph glyph-name="plusminus" horiz-adv-x="475" unicode="±" d="M56 85q0 10 6 16.5t15 6.5h320q8 0 15 -6.5t7 -16.5t-7 -16t-15 -6h-320q-9 0 -15 6t-6 16zM238 169q-10 0 -16.5 6t-6.5 15v136h-138q-9 0 -15 6t-6 17q0 10 6 16.5t15 6.5h138v135q0 8 6.5 15t16.5 7t16 -7t6 -15v-135h137q8 0 15 -6.5t7 -16.5q0 -11 -7 -17t-15 -6 h-137v-136q0 -9 -6 -15t-16 -6z"/>
<glyph glyph-name="twosuperior" horiz-adv-x="303" unicode="²" d="M44 644q0 39 31.5 63t76.5 24q24 0 45 -7.5t36.5 -21t24 -31.5t8.5 -39q0 -27 -14 -48.5t-35 -39.5t-45.5 -32.5t-45.5 -28.5t-35 -28.5t-14 -30.5v-26h178q6 0 10.5 -5.5t4.5 -13.5t-4.5 -13.5t-10.5 -5.5h-201q-6 0 -12.5 4t-6.5 11v49q0 21 14 38.5t35 33.5t46 31 t46 31t35 33.5t14 38.5q0 23 -18 42.5t-56 19.5q-29 0 -47.5 -13.5t-18.5 -42.5q0 -5 -5.5 -10.5t-16.5 -5.5q-9 0 -14 5t-5 19z"/>
<glyph glyph-name="threesuperior" horiz-adv-x="309" unicode="³" d="M150 395q39 0 59.5 16.5t20.5 54.5v9q0 33 -22 47.5t-57 14.5q-9 0 -12.5 5.5t-3.5 11.5q0 7 3.5 12.5t12.5 5.5q32 0 50 12.5t18 48.5q0 61 -66 61q-21 0 -35 -5t-21.5 -12.5t-10.5 -16t-3 -16.5q0 -18 -20 -18q-13 0 -17 4.5t-4 16.5q0 11 4.5 25.5t17 27.5t34.5 22 t56 9q47 0 76 -20t29 -70q0 -34 -13 -55.5t-33 -29.5q25 -9 41 -28.5t16 -52.5v-9q0 -30 -9.5 -50.5t-25.5 -33.5t-37.5 -19t-46.5 -6q-30 0 -52.5 8t-37.5 20.5t-22 27.5t-7 30q0 12 4.5 15.5t14.5 3.5q13 0 17.5 -4t4.5 -12q0 -16 16.5 -33.5t60.5 -17.5z"/>
<glyph glyph-name="acute" horiz-adv-x="143" unicode="´" d="M32 599q-5 -3 -10 -3q-9 0 -15.5 7t-6.5 16q0 11 9 15l107 61q4 2 8 2q9 0 14 -7.5t5 -15.5q0 -13 -11 -20z"/>
<glyph glyph-name="mu" horiz-adv-x="483" unicode="µ" d="M257 -6q-48 0 -83.5 21t-52.5 49v-278q0 -9 -7 -15t-16 -6q-11 0 -17.5 6t-6.5 15v665q0 8 6.5 14.5t17.5 6.5t18 -6.5t7 -14.5v-295q0 -16 11.5 -36t30.5 -38t43.5 -30t50.5 -12q25 0 48.5 11.5t40.5 31t27.5 44t10.5 50.5v274q0 11 7.5 16t16.5 5q11 0 18 -5t7 -16 v-274q0 -38 -13.5 -71t-37.5 -58t-56.5 -39.5t-70.5 -14.5z"/>
<glyph glyph-name="paragraph" horiz-adv-x="517" unicode="¶" d="M416 731q8 0 14.5 -5.5t6.5 -16.5v-688q0 -11 -6.5 -16t-14.5 -5t-15 5t-7 16v670h-76v-669q0 -11 -6.5 -16.5t-14.5 -5.5t-15 5.5t-7 16.5v284h-44q-41 0 -77 11t-62.5 36t-41.5 64.5t-15 95.5v12q0 56 15 95.5t41.5 64t62.5 35.5t77 11h185z"/>
<glyph glyph-name="periodcentered" horiz-adv-x="177" unicode="·" d="M89 340q17 0 28.5 -11.5t11.5 -28.5q0 -16 -11.5 -28t-28.5 -12q-18 0 -29.5 12t-11.5 28q0 17 11.5 28.5t29.5 11.5z"/>
<glyph glyph-name="cedilla" horiz-adv-x="161" unicode="¸" d="M66 -63q51 -2 73 -23.5t22 -47.5q0 -28 -21.5 -51t-63.5 -23q-9 0 -22 1.5t-25 4.5t-20.5 7.5t-8.5 10.5q0 5 4 13t10 8q5 0 18 -6.5t38 -6.5q30 0 42 12t12 28q0 22 -18 32t-49 12l-33 2l25 99h35z"/>
<glyph glyph-name="onesuperior" horiz-adv-x="163" unicode="¹" d="M69 668l-22 -28q-4 -6 -10 -6q-8 0 -12 5t-4 12q0 5 3 10t5 7l49 57q3 2 6.5 4t8.5 2q6 0 11.5 -4t5.5 -11v-341q0 -8 -6 -11.5t-14 -3.5t-14.5 3.5t-6.5 11.5v293z"/>
<glyph glyph-name="ordmasculine" horiz-adv-x="325" unicode="º" d="M239 617q0 15 -6 29t-16 25t-24 17.5t-30 6.5q-33 0 -55 -24t-22 -54v-67q0 -31 22 -55.5t55 -24.5q32 0 54 24.5t22 55.5v67zM163 735q24 0 45.5 -9.5t38 -25.5t26.5 -37.5t10 -45.5v-67q0 -24 -10 -45.5t-26.5 -38t-38 -26.5t-45.5 -10t-46 10t-38.5 26.5t-26.5 38 t-10 45.5v67q0 24 9.5 45t26 37.5t38.5 26t47 9.5z"/>
<glyph glyph-name="guillemotright" horiz-adv-x="381" unicode="»" d="M135 277l-92 170q-3 4 -3 10q0 8 7.5 16t18.5 8q13 0 20 -10l92 -172q8 -13 8 -22q0 -6 -2 -11t-6 -11l-92 -171q-6 -10 -18 -10q-11 0 -19.5 7.5t-8.5 16.5q0 5 3 10zM293 277l-92 170q-3 4 -3 10q0 8 7.5 16t18.5 8q15 0 20 -10l93 -172q7 -14 7 -22q0 -6 -2 -11 t-5 -11l-93 -171q-6 -10 -18 -10q-11 0 -19.5 7.5t-8.5 16.5q0 5 3 10z"/>
<glyph glyph-name="onequarter" horiz-adv-x="589" unicode="¼" d="M476 86h-143q-15 0 -15 16q0 3 2 9l141 247q6 13 19 13q7 0 13.5 -4.5t6.5 -12.5q0 -3 -2 -7l-127 -222h105v87q0 8 6 11t14 3t14.5 -3t6.5 -11v-87h31q8 0 12 -6t4 -14q0 -7 -5 -13t-11 -6h-31v-71q0 -8 -6.5 -11.5t-14.5 -3.5t-14 3.5t-6 11.5v71zM474 768q8 0 15.5 -6 t7.5 -17q0 -5 -3 -11l-384 -744q-6 -13 -20 -13q-8 0 -14.5 5.5t-6.5 13.5q0 7 2 11l387 751q2 6 6.5 8t9.5 2zM81 668l-22 -28q-4 -6 -10 -6q-8 0 -12 5t-4 12q0 5 3 10t5 7l49 57q3 2 6.5 4t8.5 2q6 0 11.5 -4t5.5 -11v-341q0 -8 -6 -11.5t-14 -3.5t-14.5 3.5t-6.5 11.5 v293z"/>
<glyph glyph-name="onehalf" horiz-adv-x="613" unicode="½" d="M461 768q8 0 15.5 -6t7.5 -17q0 -5 -3 -11l-384 -744q-6 -13 -20 -13q-8 0 -14.5 5.5t-6.5 13.5q0 7 2 11l387 751q2 6 6.5 8t9.5 2zM84 668l-22 -28q-4 -6 -10 -6q-8 0 -12 5t-4 12q0 5 3 10t5 7l49 57q3 2 6.5 4t8.5 2q6 0 11.5 -4t5.5 -11v-341q0 -8 -6 -11.5 t-14 -3.5t-14.5 3.5t-6.5 11.5v293zM352 284q0 39 31.5 63t76.5 24q24 0 45 -7.5t36.5 -21t24 -31.5t8.5 -39q0 -27 -14 -48.5t-35 -39.5t-45.5 -32.5t-45.5 -28.5t-35 -28t-14 -30v-27h178q6 0 10.5 -5.5t4.5 -13.5q0 -7 -4.5 -13t-10.5 -6h-201q-6 0 -12.5 4t-6.5 11v49 q0 21 14 38.5t35 33.5t46 31t46 31t35 33.5t14 38.5q0 23 -18 42.5t-56 19.5q-29 0 -47.5 -13.5t-18.5 -42.5q0 -5 -5.5 -10.5t-16.5 -5.5q-9 0 -14 5t-5 19z"/>
<glyph glyph-name="threequarters" horiz-adv-x="720" unicode="¾" d="M598 768q8 0 15.5 -6t7.5 -17q0 -5 -3 -11l-384 -744q-6 -13 -20 -13q-8 0 -14.5 5.5t-6.5 13.5q0 7 2 11l387 751q2 6 6.5 8t9.5 2zM607 86h-143q-15 0 -15 16q0 3 2 9l141 247q6 13 19 13q7 0 13.5 -4.5t6.5 -12.5q0 -3 -2 -7l-127 -222h105v87q0 8 6 11t14 3t14.5 -3 t6.5 -11v-87h31q8 0 12 -6t4 -14q0 -7 -5 -13t-11 -6h-31v-71q0 -8 -6.5 -11.5t-14.5 -3.5t-14 3.5t-6 11.5v71zM152 395q39 0 59.5 16.5t20.5 54.5v9q0 33 -22 47.5t-57 14.5q-9 0 -12.5 5.5t-3.5 11.5q0 7 3.5 12.5t12.5 5.5q32 0 50 12.5t18 48.5q0 61 -66 61 q-21 0 -35 -5t-21.5 -12.5t-10.5 -16t-3 -16.5q0 -18 -20 -18q-13 0 -17 4.5t-4 16.5q0 11 4.5 25.5t17 27.5t34.5 22t56 9q47 0 76 -20t29 -70q0 -34 -13 -55.5t-33 -29.5q25 -9 41 -28.5t16 -52.5v-9q0 -30 -9.5 -50.5t-25.5 -33.5t-37.5 -19t-46.5 -6q-30 0 -52.5 8 t-37.5 20.5t-22 27.5t-7 30q0 12 4.5 15.5t14.5 3.5q13 0 17.5 -4t4.5 -12q0 -16 16.5 -33.5t60.5 -17.5z"/>
<glyph glyph-name="questiondown" horiz-adv-x="390" unicode="¿" d="M226 664q-17 0 -28.5 12t-11.5 29t11.5 29t28.5 12t28.5 -12t11.5 -29t-11.5 -29t-28.5 -12zM36 174q0 49 16 85t38 63t45.5 47.5t38.5 38.5q22 25 26 61.5t4 95.5q0 20 22 20q9 0 15 -5t6 -18q0 -44 -2.5 -73t-7.5 -49t-12 -33t-16 -23q-16 -18 -38 -37t-41.5 -42.5 t-33.5 -54.5t-14 -73q0 -65 35.5 -102t107.5 -37q32 0 52.5 7t33.5 15.5t20.5 15.5t15.5 7q6 0 12.5 -6t6.5 -16q0 -11 -11.5 -23t-31.5 -21.5t-46 -16t-56 -6.5q-47 0 -81.5 14t-57.5 38.5t-34.5 57t-11.5 70.5z"/>
<glyph glyph-name="Agrave" horiz-adv-x="530" unicode="À" d="M203 911q-11 7 -11 20q0 8 5.5 15.5t14.5 7.5q3 0 7 -2l107 -61q9 -4 9 -15q0 -9 -6.5 -16t-15.5 -7q-4 0 -10 3zM395 220l-129 427l-132 -427h261zM51 0q-10 0 -19 5.5t-9 16.5q0 4 1 6l214 691q6 18 28 18q9 0 17 -4.5t11 -13.5l212 -691q0 -2 0.5 -3t0.5 -3 q0 -9 -9 -15.5t-20 -6.5q-16 0 -20 15l-49 159h-288l-48 -159q-5 -15 -22 -15z"/>
<glyph glyph-name="Aacute" horiz-adv-x="530" unicode="Á" d="M230 856q-5 -3 -10 -3q-9 0 -15.5 7t-6.5 16q0 11 9 15l107 61q4 2 8 2q9 0 14 -7.5t5 -15.5q0 -13 -11 -20zM395 220l-129 427l-132 -427h261zM51 0q-10 0 -19 5.5t-9 16.5q0 4 1 6l214 691q6 18 28 18q9 0 17 -4.5t11 -13.5l212 -691q0 -2 0.5 -3t0.5 -3q0 -9 -9 -15.5 t-20 -6.5q-16 0 -20 15l-49 159h-288l-48 -159q-5 -15 -22 -15z"/>
<glyph glyph-name="Acircumflex" horiz-adv-x="530" unicode="Â" d="M161 856l-4 -2t-4 -1q-8 0 -14 6.5t-6 16.5q0 11 11 17l104 56q8 5 17 5t17 -5l104 -55q11 -6 11 -20q0 -8 -5.5 -14t-13.5 -6q-2 0 -4.5 1t-4.5 2l-104 55zM395 220l-129 427l-132 -427h261zM51 0q-10 0 -19 5.5t-9 16.5q0 4 1 6l214 691q6 18 28 18q9 0 17 -4.5 t11 -13.5l212 -691q0 -2 0.5 -3t0.5 -3q0 -9 -9 -15.5t-20 -6.5q-16 0 -20 15l-49 159h-288l-48 -159q-5 -15 -22 -15z"/>
<glyph glyph-name="Atilde" horiz-adv-x="530" unicode="Ã" d="M202 907q-16 0 -27 -5t-19 -11.5t-13.5 -11.5t-11.5 -5q-8 0 -12 6.5t-4 14.5q0 12 9 21.5t22.5 17t29 11.5t28.5 4q19 0 34 -5.5t29.5 -12.5t30 -12.5t35.5 -5.5q17 0 27 5t17 10.5t12 10.5t11 5q8 0 12.5 -6t4.5 -13q0 -14 -9 -24t-22 -16.5t-27.5 -10t-25.5 -3.5 q-19 0 -34 5.5t-30 12.5t-30.5 12.5t-36.5 5.5zM395 220l-129 427l-132 -427h261zM51 0q-10 0 -19 5.5t-9 16.5q0 4 1 6l214 691q6 18 28 18q9 0 17 -4.5t11 -13.5l212 -691q0 -2 0.5 -3t0.5 -3q0 -9 -9 -15.5t-20 -6.5q-16 0 -20 15l-49 159h-288l-48 -159q-5 -15 -22 -15z "/>
<glyph glyph-name="Adieresis" horiz-adv-x="530" unicode="Ä" d="M324 919q14 0 23 -9t9 -23t-9 -23.5t-23 -9.5q-15 0 -24 9.5t-9 23.5t9 23t24 9zM207 919q14 0 23 -9t9 -23t-9 -23.5t-23 -9.5t-23.5 9.5t-9.5 23.5t9.5 23t23.5 9zM395 220l-129 427l-132 -427h261zM51 0q-10 0 -19 5.5t-9 16.5q0 4 1 6l214 691q6 18 28 18 q9 0 17 -4.5t11 -13.5l212 -691q0 -2 0.5 -3t0.5 -3q0 -9 -9 -15.5t-20 -6.5q-16 0 -20 15l-49 159h-288l-48 -159q-5 -15 -22 -15z"/>
<glyph glyph-name="Aring" horiz-adv-x="530" unicode="Å" d="M327 933q0 23 -18 42.5t-44 19.5q-13 0 -24.5 -5.5t-20 -14.5t-13.5 -20t-5 -22q0 -25 18.5 -46t44.5 -21t44 20.5t18 46.5zM265 1025q18 0 34.5 -7.5t29 -20t20 -29.5t7.5 -35q0 -19 -7.5 -36t-20 -30t-29 -20.5t-34.5 -7.5q-19 0 -35.5 7.5t-29 20.5t-19.5 30t-7 36 q0 18 7 34.5t19.5 29.5t29 20.5t35.5 7.5zM395 220l-129 427l-132 -427h261zM51 0q-10 0 -19 5.5t-9 16.5q0 4 1 6l214 691q6 18 28 18q9 0 17 -4.5t11 -13.5l212 -691q0 -2 0.5 -3t0.5 -3q0 -9 -9 -15.5t-20 -6.5q-16 0 -20 15l-49 159h-288l-48 -159q-5 -15 -22 -15z"/>
<glyph glyph-name="AE" horiz-adv-x="697" unicode="Æ" d="M125 389h239v294h-87q-72 0 -112 -39t-40 -123v-132zM414 389h154q10 0 15.5 -7t5.5 -17q0 -8 -5 -15t-16 -7h-154v-295h236q10 0 15 -7.5t5 -17.5q0 -8 -4.5 -15.5t-15.5 -7.5h-262q-9 0 -16.5 5.5t-7.5 16.5v321h-239v-316q0 -11 -4 -19t-21 -8q-13 0 -18.5 8t-5.5 19 v494q0 57 15.5 97t43 65t64 36.5t78.5 11.5h373q11 0 15.5 -7.5t4.5 -15.5q0 -10 -5 -17.5t-15 -7.5h-236v-294z"/>
<glyph glyph-name="Ccedilla" horiz-adv-x="517" unicode="Ç" d="M425 557q-1 17 -7 39t-22 41.5t-45 32.5t-75 13q-75 0 -114.5 -39t-39.5 -123v-317q0 -85 39.5 -123.5t117.5 -38.5q47 0 74.5 13t42.5 32t20.5 41t8.5 41q1 9 6 15t18 6t19.5 -6.5t6.5 -27.5q0 -28 -11 -54.5t-32 -48.5t-52 -37t-71 -19l-15 -60q51 -2 73 -23.5 t22 -47.5q0 -28 -21.5 -51t-63.5 -23q-9 0 -22 1.5t-25 4.5t-20.5 7.5t-8.5 10.5q0 5 4 13t10 8q5 0 18 -6.5t38 -6.5q30 0 42 12t12 28q0 22 -18 32t-49 12l-33 2l21 84q-41 0 -77.5 11.5t-64 36.5t-43.5 65t-16 97v317q0 57 16.5 97t44 65t64.5 36.5t79 11.5 q48 0 85.5 -13.5t62.5 -36t38 -52t13 -60.5q0 -20 -6.5 -26.5t-18.5 -6.5q-15 0 -20 6.5t-5 14.5z"/>
<glyph glyph-name="Egrave" horiz-adv-x="503" unicode="È" d="M218 911q-11 7 -11 20q0 8 5.5 15.5t14.5 7.5q3 0 7 -2l107 -61q9 -4 9 -15q0 -9 -6.5 -16t-15.5 -7q-4 0 -10 3zM129 389h159q10 0 15.5 -7t5.5 -17q0 -8 -5 -15t-16 -7h-159v-295h330q10 0 15.5 -7.5t5.5 -17.5q0 -8 -5 -15.5t-16 -7.5h-356q-9 0 -16.5 5.5t-7.5 16.5 v687q0 11 7.5 16.5t16.5 5.5h356q11 0 16 -7.5t5 -15.5q0 -10 -5.5 -17.5t-15.5 -7.5h-330v-294z"/>
<glyph glyph-name="Eacute" horiz-adv-x="503" unicode="É" d="M129 389h159q10 0 15.5 -7t5.5 -17q0 -8 -5 -15t-16 -7h-159v-295h330q10 0 15.5 -7.5t5.5 -17.5q0 -8 -5 -15.5t-16 -7.5h-356q-9 0 -16.5 5.5t-7.5 16.5v687q0 11 7.5 16.5t16.5 5.5h356q11 0 16 -7.5t5 -15.5q0 -10 -5.5 -17.5t-15.5 -7.5h-330v-294zM242 856 q-5 -3 -10 -3q-9 0 -15.5 7t-6.5 16q0 11 9 15l107 61q4 2 8 2q9 0 14 -7.5t5 -15.5q0 -13 -11 -20z"/>
<glyph glyph-name="Ecircumflex" horiz-adv-x="503" unicode="Ê" d="M129 389h159q10 0 15.5 -7t5.5 -17q0 -8 -5 -15t-16 -7h-159v-295h330q10 0 15.5 -7.5t5.5 -17.5q0 -8 -5 -15.5t-16 -7.5h-356q-9 0 -16.5 5.5t-7.5 16.5v687q0 11 7.5 16.5t16.5 5.5h356q11 0 16 -7.5t5 -15.5q0 -10 -5.5 -17.5t-15.5 -7.5h-330v-294zM176 856l-4 -2 t-4 -1q-8 0 -14 6.5t-6 16.5q0 11 11 17l104 56q8 5 17 5t17 -5l104 -55q11 -6 11 -20q0 -8 -5.5 -14t-13.5 -6q-2 0 -4.5 1t-4.5 2l-104 55z"/>
<glyph glyph-name="Edieresis" horiz-adv-x="503" unicode="Ë" d="M129 389h159q10 0 15.5 -7t5.5 -17q0 -8 -5 -15t-16 -7h-159v-295h330q10 0 15.5 -7.5t5.5 -17.5q0 -8 -5 -15.5t-16 -7.5h-356q-9 0 -16.5 5.5t-7.5 16.5v687q0 11 7.5 16.5t16.5 5.5h356q11 0 16 -7.5t5 -15.5q0 -10 -5.5 -17.5t-15.5 -7.5h-330v-294zM338 919 q14 0 23 -9t9 -23t-9 -23.5t-23 -9.5q-15 0 -24 9.5t-9 23.5t9 23t24 9zM221 919q14 0 23 -9t9 -23t-9 -23.5t-23 -9.5t-23.5 9.5t-9.5 23.5t9.5 23t23.5 9z"/>
<glyph glyph-name="Igrave" horiz-adv-x="208" unicode="Ì" d="M42 911q-11 7 -11 20q0 8 5.5 15.5t14.5 7.5q3 0 7 -2l107 -61q9 -4 9 -15q0 -9 -6.5 -16t-15.5 -7q-4 0 -10 3zM79 710q0 11 8 16t17 5q10 0 17.5 -5t7.5 -16v-688q0 -11 -7.5 -16.5t-17.5 -5.5q-9 0 -17 5.5t-8 16.5v688z"/>
<glyph glyph-name="Iacute" horiz-adv-x="208" unicode="Í" d="M65 856q-5 -3 -10 -3q-9 0 -15.5 7t-6.5 16q0 11 9 15l107 61q4 2 8 2q9 0 14 -7.5t5 -15.5q0 -13 -11 -20zM79 710q0 11 8 16t17 5q10 0 17.5 -5t7.5 -16v-688q0 -11 -7.5 -16.5t-17.5 -5.5q-9 0 -17 5.5t-8 16.5v688z"/>
<glyph glyph-name="Icircumflex" horiz-adv-x="208" unicode="Î" d="M1 856l-4 -2t-4 -1q-8 0 -14 6.5t-6 16.5q0 11 11 17l104 56q8 5 17 5t17 -5l104 -55q11 -6 11 -20q0 -8 -5.5 -14t-13.5 -6q-2 0 -4.5 1t-4.5 2l-104 55zM79 710q0 11 8 16t17 5q10 0 17.5 -5t7.5 -16v-688q0 -11 -7.5 -16.5t-17.5 -5.5q-9 0 -17 5.5t-8 16.5v688z"/>
<glyph glyph-name="Idieresis" horiz-adv-x="208" unicode="Ï" d="M163 919q14 0 23 -9t9 -23t-9 -23.5t-23 -9.5q-15 0 -24 9.5t-9 23.5t9 23t24 9zM46 919q14 0 23 -9t9 -23t-9 -23.5t-23 -9.5t-23.5 9.5t-9.5 23.5t9.5 23t23.5 9zM79 710q0 11 8 16t17 5q10 0 17.5 -5t7.5 -16v-688q0 -11 -7.5 -16.5t-17.5 -5.5q-9 0 -17 5.5t-8 16.5 v688z"/>
<glyph glyph-name="Eth" horiz-adv-x="564" unicode="Ð" d="M139 683v-277h123q8 0 14 -6.5t6 -15.5t-6 -15.5t-14 -6.5h-123v-314h151q72 0 112 39t40 123v311q0 84 -40 123t-112 39h-151zM290 731q42 0 79 -11.5t64.5 -36.5t43 -65t15.5 -97v-311q0 -57 -15.5 -97t-43 -65t-64.5 -36.5t-79 -11.5h-177q-11 0 -17.5 6.5t-6.5 14.5 v341h-68q-9 0 -14.5 6.5t-5.5 15.5t5.5 15.5t14.5 6.5h68v304q0 8 6.5 14.5t17.5 6.5h177z"/>
<glyph glyph-name="Ntilde" horiz-adv-x="563" unicode="Ñ" d="M217 907q-16 0 -27 -5t-19 -11.5t-13.5 -11.5t-11.5 -5q-8 0 -12 6.5t-4 14.5q0 12 9 21.5t22.5 17t29 11.5t28.5 4q19 0 34 -5.5t29.5 -12.5t30 -12.5t35.5 -5.5q17 0 27 5t17 10.5t12 10.5t11 5q8 0 12.5 -6t4.5 -13q0 -14 -9 -24t-22 -16.5t-27.5 -10t-25.5 -3.5 q-19 0 -34 5.5t-30 12.5t-30.5 12.5t-36.5 5.5zM459 0q-11 0 -20 12t-16 25l-294 576v-591q0 -11 -7.5 -16.5t-17.5 -5.5q-9 0 -17 5.5t-8 16.5v688q0 12 7.5 16.5t17.5 4.5q14 0 24 -14t17 -27l289 -571v591q0 11 8 16t17 5q10 0 17.5 -5t7.5 -16v-688q0 -11 -7.5 -16.5 t-17.5 -5.5z"/>
<glyph glyph-name="Ograve" horiz-adv-x="547" unicode="Ò" d="M211 911q-11 7 -11 20q0 8 5.5 15.5t14.5 7.5q3 0 7 -2l107 -61q9 -4 9 -15q0 -9 -6.5 -16t-15.5 -7q-4 0 -10 3zM425 521q0 84 -40 123t-112 39t-111.5 -39t-39.5 -123v-317q0 -84 39.5 -123t111.5 -39t112 39t40 123v317zM273 -6q-43 0 -79.5 11.5t-63.5 36.5t-42.5 65 t-15.5 97v317q0 57 15.5 97t42.5 65t63.5 36.5t79.5 11.5q42 0 79 -11.5t64.5 -36.5t43 -65t15.5 -97v-317q0 -57 -15.5 -97t-43 -65t-64.5 -36.5t-79 -11.5z"/>
<glyph glyph-name="Oacute" horiz-adv-x="547" unicode="Ó" d="M425 521q0 84 -40 123t-112 39t-111.5 -39t-39.5 -123v-317q0 -84 39.5 -123t111.5 -39t112 39t40 123v317zM273 -6q-43 0 -79.5 11.5t-63.5 36.5t-42.5 65t-15.5 97v317q0 57 15.5 97t42.5 65t63.5 36.5t79.5 11.5q42 0 79 -11.5t64.5 -36.5t43 -65t15.5 -97v-317 q0 -57 -15.5 -97t-43 -65t-64.5 -36.5t-79 -11.5zM239 856q-5 -3 -10 -3q-9 0 -15.5 7t-6.5 16q0 11 9 15l107 61q4 2 8 2q9 0 14 -7.5t5 -15.5q0 -13 -11 -20z"/>
<glyph glyph-name="Ocircumflex" horiz-adv-x="547" unicode="Ô" d="M425 521q0 84 -40 123t-112 39t-111.5 -39t-39.5 -123v-317q0 -84 39.5 -123t111.5 -39t112 39t40 123v317zM273 -6q-43 0 -79.5 11.5t-63.5 36.5t-42.5 65t-15.5 97v317q0 57 15.5 97t42.5 65t63.5 36.5t79.5 11.5q42 0 79 -11.5t64.5 -36.5t43 -65t15.5 -97v-317 q0 -57 -15.5 -97t-43 -65t-64.5 -36.5t-79 -11.5zM169 856l-4 -2t-4 -1q-8 0 -14 6.5t-6 16.5q0 11 11 17l104 56q8 5 17 5t17 -5l104 -55q11 -6 11 -20q0 -8 -5.5 -14t-13.5 -6q-2 0 -4.5 1t-4.5 2l-104 55z"/>
<glyph glyph-name="Otilde" horiz-adv-x="547" unicode="Õ" d="M209 907q-16 0 -27 -5t-19 -11.5t-13.5 -11.5t-11.5 -5q-8 0 -12 6.5t-4 14.5q0 12 9 21.5t22.5 17t29 11.5t28.5 4q19 0 34 -5.5t29.5 -12.5t30 -12.5t35.5 -5.5q17 0 27 5t17 10.5t12 10.5t11 5q8 0 12.5 -6t4.5 -13q0 -14 -9 -24t-22 -16.5t-27.5 -10t-25.5 -3.5 q-19 0 -34 5.5t-30 12.5t-30.5 12.5t-36.5 5.5zM425 521q0 84 -40 123t-112 39t-111.5 -39t-39.5 -123v-317q0 -84 39.5 -123t111.5 -39t112 39t40 123v317zM273 -6q-43 0 -79.5 11.5t-63.5 36.5t-42.5 65t-15.5 97v317q0 57 15.5 97t42.5 65t63.5 36.5t79.5 11.5 q42 0 79 -11.5t64.5 -36.5t43 -65t15.5 -97v-317q0 -57 -15.5 -97t-43 -65t-64.5 -36.5t-79 -11.5z"/>
<glyph glyph-name="Odieresis" horiz-adv-x="547" unicode="Ö" d="M425 521q0 84 -40 123t-112 39t-111.5 -39t-39.5 -123v-317q0 -84 39.5 -123t111.5 -39t112 39t40 123v317zM273 -6q-43 0 -79.5 11.5t-63.5 36.5t-42.5 65t-15.5 97v317q0 57 15.5 97t42.5 65t63.5 36.5t79.5 11.5q42 0 79 -11.5t64.5 -36.5t43 -65t15.5 -97v-317 q0 -57 -15.5 -97t-43 -65t-64.5 -36.5t-79 -11.5zM332 919q14 0 23 -9t9 -23t-9 -23.5t-23 -9.5q-15 0 -24 9.5t-9 23.5t9 23t24 9zM215 919q14 0 23 -9t9 -23t-9 -23.5t-23 -9.5t-23.5 9.5t-9.5 23.5t9.5 23t23.5 9z"/>
<glyph glyph-name="multiply" horiz-adv-x="395" unicode="×" d="M333 164q0 -8 -7 -16t-17 -8q-7 0 -14 6l-98 97l-97 -97q-8 -6 -14 -6q-9 0 -16.5 7.5t-7.5 16.5q0 6 6 14l99 97l-99 97q-5 5 -5 15q0 9 7 16t16 7q8 0 15 -5l96 -98l97 98q7 5 15 5q9 0 16 -7t7 -16q0 -10 -5 -15l-99 -97l99 -97q6 -8 6 -14z"/>
<glyph glyph-name="Oslash" horiz-adv-x="547" unicode="Ø" d="M122 204q0 -35 8 -65l257 501q-39 43 -114 43q-72 0 -111.5 -39t-39.5 -123v-317zM425 521q0 43 -12 75l-260 -505q39 -49 120 -49q72 0 112 39t40 123v317zM465 768q8 0 15.5 -6t7.5 -17q0 -6 -4 -11l-42 -82q16 -24 24.5 -56.5t8.5 -74.5v-317q0 -57 -15.5 -97t-43 -65 t-64.5 -36.5t-79 -11.5q-44 0 -81 11.5t-64 37.5l-27 -53q-7 -13 -21 -13q-8 0 -14 5.5t-6 13.5q0 7 2 11l37 73q-13 23 -20 54t-7 70v317q0 57 15.5 97t42.5 65t63.5 36.5t79.5 11.5q41 0 76 -10.5t62 -33.5l37 71q5 10 17 10z"/>
<glyph glyph-name="Ugrave" horiz-adv-x="557" unicode="Ù" d="M215 911q-11 7 -11 20q0 8 5.5 15.5t14.5 7.5q3 0 7 -2l107 -61q9 -4 9 -15q0 -9 -6.5 -16t-15.5 -7q-4 0 -10 3zM431 710q0 11 7.5 16t17.5 5q9 0 17 -5t8 -16v-506q0 -57 -15.5 -97t-43 -65t-64.5 -36.5t-80 -11.5t-80 11.5t-64 36.5t-42.5 65t-15.5 97v506q0 11 8 16 t17 5q10 0 17.5 -5t7.5 -16v-506q0 -84 40 -123t112 -39t112.5 39t40.5 123v506z"/>
<glyph glyph-name="Uacute" horiz-adv-x="557" unicode="Ú" d="M431 710q0 11 7.5 16t17.5 5q9 0 17 -5t8 -16v-506q0 -57 -15.5 -97t-43 -65t-64.5 -36.5t-80 -11.5t-80 11.5t-64 36.5t-42.5 65t-15.5 97v506q0 11 8 16t17 5q10 0 17.5 -5t7.5 -16v-506q0 -84 40 -123t112 -39t112.5 39t40.5 123v506zM242 856q-5 -3 -10 -3 q-9 0 -15.5 7t-6.5 16q0 11 9 15l107 61q4 2 8 2q9 0 14 -7.5t5 -15.5q0 -13 -11 -20z"/>
<glyph glyph-name="Ucircumflex" horiz-adv-x="557" unicode="Û" d="M431 710q0 11 7.5 16t17.5 5q9 0 17 -5t8 -16v-506q0 -57 -15.5 -97t-43 -65t-64.5 -36.5t-80 -11.5t-80 11.5t-64 36.5t-42.5 65t-15.5 97v506q0 11 8 16t17 5q10 0 17.5 -5t7.5 -16v-506q0 -84 40 -123t112 -39t112.5 39t40.5 123v506zM173 856l-4 -2t-4 -1 q-8 0 -14 6.5t-6 16.5q0 11 11 17l104 56q8 5 17 5t17 -5l104 -55q11 -6 11 -20q0 -8 -5.5 -14t-13.5 -6q-2 0 -4.5 1t-4.5 2l-104 55z"/>
<glyph glyph-name="Udieresis" horiz-adv-x="557" unicode="Ü" d="M431 710q0 11 7.5 16t17.5 5q9 0 17 -5t8 -16v-506q0 -57 -15.5 -97t-43 -65t-64.5 -36.5t-80 -11.5t-80 11.5t-64 36.5t-42.5 65t-15.5 97v506q0 11 8 16t17 5q10 0 17.5 -5t7.5 -16v-506q0 -84 40 -123t112 -39t112.5 39t40.5 123v506zM337 919q14 0 23 -9t9 -23 t-9 -23.5t-23 -9.5q-15 0 -24 9.5t-9 23.5t9 23t24 9zM220 919q14 0 23 -9t9 -23t-9 -23.5t-23 -9.5t-23.5 9.5t-9.5 23.5t9.5 23t23.5 9z"/>
<glyph glyph-name="Yacute" horiz-adv-x="520" unicode="Ý" d="M222 856q-5 -3 -10 -3q-9 0 -15.5 7t-6.5 16q0 11 9 15l107 61q4 2 8 2q9 0 14 -7.5t5 -15.5q0 -13 -11 -20zM235 276q0 3 -2 7l-207 407q-5 13 -5 19q0 11 7.5 16.5t16.5 5.5q12 0 23 -18l192 -385l193 385q9 18 23 18q8 0 15 -5.5t7 -16.5q0 -3 -0.5 -8t-3.5 -11 l-208 -407q-1 -2 -1 -7v-254q0 -11 -8 -16.5t-17 -5.5q-10 0 -17.5 5.5t-7.5 16.5v254z"/>
<glyph glyph-name="Thorn" d="M392 466q0 27 -11 46.5t-28.5 33t-40.5 20t-47 6.5q-27 0 -52 -7.5t-43.5 -21.5t-30 -33.5t-11.5 -43.5v-179q0 -19 10.5 -38t28.5 -34.5t43 -25t55 -9.5q24 0 46.5 6.5t40.5 20t29 34t11 47.5v178zM103 733q25 0 25 -21v-169q17 30 52 53t89 23q33 0 64 -10t55 -29.5 t38.5 -48t14.5 -65.5v-178q0 -37 -14.5 -65.5t-38.5 -48t-54 -30t-60 -10.5q-23 0 -46.5 5.5t-43 16t-34.5 25t-22 31.5v-190q0 -8 -7 -15t-17 -7q-11 0 -18 7t-7 15v691q0 10 7 15t17 5z" unicode="Þ"/>
<glyph glyph-name="germandbls" horiz-adv-x="539" unicode="ß" d="M324 -20q-11 0 -29 1.5t-35.5 6t-30.5 12t-13 20.5q0 8 5 15.5t13 7.5q5 0 11.5 -3t16 -7t22.5 -7t31 -3q62 0 99 43.5t37 129.5v19q0 27 -8.5 56t-27 53.5t-49.5 41.5t-76 21q-15 2 -23.5 5t-8.5 17t9.5 18t23.5 5q29 1 47 16.5t27.5 36.5t12.5 45t3 43 q0 69 -28.5 108.5t-87.5 39.5q-32 0 -53.5 -11.5t-34.5 -30t-18.5 -43t-5.5 -50.5v-565q0 -10 -7.5 -15.5t-18.5 -5.5q-10 0 -16.5 5.5t-6.5 15.5v408h-77q-9 0 -14.5 6t-5.5 15t5.5 15.5t14.5 6.5h77v114q0 37 9 70t28 58t49 39.5t73 14.5q35 0 65 -10.5t52 -33t34.5 -56.5 t12.5 -80q0 -27 -4.5 -54.5t-13.5 -51t-22.5 -41.5t-31.5 -26q25 -5 50 -22t45.5 -43.5t33.5 -60.5t13 -73v-18q0 -56 -15 -97t-39 -68t-55 -40t-64 -13z"/>
<glyph glyph-name="agrave" horiz-adv-x="431" unicode="à" d="M140 654q-11 7 -11 20q0 8 5.5 15.5t14.5 7.5q3 0 7 -2l107 -61q9 -4 9 -15q0 -9 -6.5 -16t-15.5 -7q-4 0 -10 3zM320 220h-49q-37 0 -71 -2.5t-60.5 -12t-42 -28t-15.5 -49.5q0 -47 27.5 -68.5t68.5 -21.5q26 0 51.5 10.5t45.5 27t32.5 35t12.5 35.5v74zM196 478 q48 0 81 -16t53.5 -43t29.5 -61.5t9 -71.5v-264q0 -9 -6.5 -15.5t-17.5 -6.5q-10 0 -17 6.5t-7 15.5v48q-26 -29 -63 -52.5t-87 -23.5q-29 0 -54 8t-44 24.5t-29.5 41t-10.5 58.5q0 40 17 66t47.5 41t73.5 21t95 6h54v26q0 26 -7 52.5t-22 47.5t-39 34t-58 13 q-24 0 -41.5 -4.5t-30 -9.5t-20.5 -9.5t-13 -4.5q-11 0 -16.5 9.5t-5.5 17.5t11.5 16.5t30 15t41.5 10.5t46 4z"/>
<glyph glyph-name="aacute" horiz-adv-x="431" unicode="á" d="M164 599q-5 -3 -10 -3q-9 0 -15.5 7t-6.5 16q0 11 9 15l107 61q4 2 8 2q9 0 14 -7.5t5 -15.5q0 -13 -11 -20zM320 220h-49q-37 0 -71 -2.5t-60.5 -12t-42 -28t-15.5 -49.5q0 -47 27.5 -68.5t68.5 -21.5q26 0 51.5 10.5t45.5 27t32.5 35t12.5 35.5v74zM196 478 q48 0 81 -16t53.5 -43t29.5 -61.5t9 -71.5v-264q0 -9 -6.5 -15.5t-17.5 -6.5q-10 0 -17 6.5t-7 15.5v48q-26 -29 -63 -52.5t-87 -23.5q-29 0 -54 8t-44 24.5t-29.5 41t-10.5 58.5q0 40 17 66t47.5 41t73.5 21t95 6h54v26q0 26 -7 52.5t-22 47.5t-39 34t-58 13 q-24 0 -41.5 -4.5t-30 -9.5t-20.5 -9.5t-13 -4.5q-11 0 -16.5 9.5t-5.5 17.5t11.5 16.5t30 15t41.5 10.5t46 4z"/>
<glyph glyph-name="acircumflex" horiz-adv-x="431" unicode="â" d="M320 220h-49q-37 0 -71 -2.5t-60.5 -12t-42 -28t-15.5 -49.5q0 -47 27.5 -68.5t68.5 -21.5q26 0 51.5 10.5t45.5 27t32.5 35t12.5 35.5v74zM196 478q48 0 81 -16t53.5 -43t29.5 -61.5t9 -71.5v-264q0 -9 -6.5 -15.5t-17.5 -6.5q-10 0 -17 6.5t-7 15.5v48 q-26 -29 -63 -52.5t-87 -23.5q-29 0 -54 8t-44 24.5t-29.5 41t-10.5 58.5q0 40 17 66t47.5 41t73.5 21t95 6h54v26q0 26 -7 52.5t-22 47.5t-39 34t-58 13q-24 0 -41.5 -4.5t-30 -9.5t-20.5 -9.5t-13 -4.5q-11 0 -16.5 9.5t-5.5 17.5t11.5 16.5t30 15t41.5 10.5t46 4z M100 599l-4 -2t-4 -1q-8 0 -14 6.5t-6 16.5q0 11 11 17l104 56q8 5 17 5t17 -5l104 -55q11 -6 11 -20q0 -8 -5.5 -14t-13.5 -6q-2 0 -4.5 1t-4.5 2l-104 55z"/>
<glyph glyph-name="atilde" horiz-adv-x="431" unicode="ã" d="M137 650q-16 0 -27 -5t-19 -11.5t-13.5 -11.5t-11.5 -5q-8 0 -12 6.5t-4 14.5q0 12 9 21.5t22.5 17t29 11.5t28.5 4q19 0 34 -5.5t29.5 -12.5t30 -12.5t35.5 -5.5q17 0 27 5t17 10.5t12 10.5t11 5q8 0 12.5 -6t4.5 -13q0 -14 -9 -24t-22 -16.5t-27.5 -10t-25.5 -3.5 q-19 0 -34 5.5t-30 12.5t-30.5 12.5t-36.5 5.5zM320 220h-49q-37 0 -71 -2.5t-60.5 -12t-42 -28t-15.5 -49.5q0 -47 27.5 -68.5t68.5 -21.5q26 0 51.5 10.5t45.5 27t32.5 35t12.5 35.5v74zM196 478q48 0 81 -16t53.5 -43t29.5 -61.5t9 -71.5v-264q0 -9 -6.5 -15.5 t-17.5 -6.5q-10 0 -17 6.5t-7 15.5v48q-26 -29 -63 -52.5t-87 -23.5q-29 0 -54 8t-44 24.5t-29.5 41t-10.5 58.5q0 40 17 66t47.5 41t73.5 21t95 6h54v26q0 26 -7 52.5t-22 47.5t-39 34t-58 13q-24 0 -41.5 -4.5t-30 -9.5t-20.5 -9.5t-13 -4.5q-11 0 -16.5 9.5t-5.5 17.5 t11.5 16.5t30 15t41.5 10.5t46 4z"/>
<glyph glyph-name="adieresis" horiz-adv-x="431" unicode="ä" d="M320 220h-49q-37 0 -71 -2.5t-60.5 -12t-42 -28t-15.5 -49.5q0 -47 27.5 -68.5t68.5 -21.5q26 0 51.5 10.5t45.5 27t32.5 35t12.5 35.5v74zM196 478q48 0 81 -16t53.5 -43t29.5 -61.5t9 -71.5v-264q0 -9 -6.5 -15.5t-17.5 -6.5q-10 0 -17 6.5t-7 15.5v48 q-26 -29 -63 -52.5t-87 -23.5q-29 0 -54 8t-44 24.5t-29.5 41t-10.5 58.5q0 40 17 66t47.5 41t73.5 21t95 6h54v26q0 26 -7 52.5t-22 47.5t-39 34t-58 13q-24 0 -41.5 -4.5t-30 -9.5t-20.5 -9.5t-13 -4.5q-11 0 -16.5 9.5t-5.5 17.5t11.5 16.5t30 15t41.5 10.5t46 4z M260 662q14 0 23 -9t9 -23t-9 -23.5t-23 -9.5q-15 0 -24 9.5t-9 23.5t9 23t24 9zM143 662q14 0 23 -9t9 -23t-9 -23.5t-23 -9.5t-23.5 9.5t-9.5 23.5t9.5 23t23.5 9z"/>
<glyph glyph-name="aring" horiz-adv-x="431" unicode="å" d="M264 676q0 23 -18 42.5t-44 19.5q-13 0 -24.5 -5.5t-20 -14.5t-13.5 -20t-5 -22q0 -25 18.5 -46t44.5 -21t44 20.5t18 46.5zM202 768q18 0 34.5 -7.5t29 -20t20 -29.5t7.5 -35q0 -19 -7.5 -36t-20 -30t-29 -20.5t-34.5 -7.5q-19 0 -35.5 7.5t-29 20.5t-19.5 30t-7 36 q0 18 7 34.5t19.5 29.5t29 20.5t35.5 7.5zM320 220h-49q-37 0 -71 -2.5t-60.5 -12t-42 -28t-15.5 -49.5q0 -47 27.5 -68.5t68.5 -21.5q26 0 51.5 10.5t45.5 27t32.5 35t12.5 35.5v74zM196 478q48 0 81 -16t53.5 -43t29.5 -61.5t9 -71.5v-264q0 -9 -6.5 -15.5t-17.5 -6.5 q-10 0 -17 6.5t-7 15.5v48q-26 -29 -63 -52.5t-87 -23.5q-29 0 -54 8t-44 24.5t-29.5 41t-10.5 58.5q0 40 17 66t47.5 41t73.5 21t95 6h54v26q0 26 -7 52.5t-22 47.5t-39 34t-58 13q-24 0 -41.5 -4.5t-30 -9.5t-20.5 -9.5t-13 -4.5q-11 0 -16.5 9.5t-5.5 17.5t11.5 16.5 t30 15t41.5 10.5t46 4z"/>
<glyph glyph-name="ae" horiz-adv-x="723" unicode="æ" d="M318 220h-49q-38 0 -71.5 -2.5t-59.5 -12.5t-41 -28.5t-15 -50.5q0 -45 27.5 -66.5t67.5 -21.5q29 0 54.5 11t45 27t30.5 35t11 35v74zM582 261q36 0 45.5 7t9.5 27q0 27 -9.5 52t-27 44.5t-42 31t-54.5 11.5q-29 0 -53 -10.5t-42 -28.5t-28 -41.5t-10 -50.5v-42h211z M503 478q30 0 62 -10.5t59 -33.5t44 -60t17 -89q0 -21 -3.5 -34t-13 -19.5t-26 -9t-41.5 -2.5h-230v-42q0 -32 12 -58t33 -44t49.5 -27.5t62.5 -9.5q30 0 49.5 6t33 13.5t22 14t16.5 6.5t15 -7t7 -17q0 -11 -14 -22t-36.5 -19.5t-49.5 -14t-54 -5.5q-56 0 -103.5 26 t-71.5 76q-32 -56 -79 -79t-91 -23q-28 0 -53.5 8t-44.5 24t-30 41t-11 58q0 40 16.5 66.5t47 41.5t73 21t94.5 6h54v27q0 27 -7 53t-22 47t-39.5 34t-59.5 13q-23 0 -40 -4.5t-29.5 -9.5t-21 -9.5t-13.5 -4.5q-9 0 -15 9.5t-6 17.5t11.5 16.5t30 15t41.5 10.5t47 4 q61 0 98 -27.5t54 -69.5q23 42 64 69t92 27z"/>
<glyph glyph-name="ccedilla" horiz-adv-x="406" unicode="ç" d="M378 56q0 -9 -8.5 -19t-25 -19t-40 -15.5t-52.5 -7.5l-14 -58q51 -2 73 -23.5t22 -47.5q0 -28 -21.5 -51t-63.5 -23q-9 0 -22 1.5t-25 4.5t-20.5 7.5t-8.5 10.5q0 5 4 13t10 8q5 0 18 -6.5t38 -6.5q30 0 42 12t12 28q0 22 -18 32t-49 12l-33 2l21 85q-43 3 -74.5 17.5 t-52.5 39t-31 57t-10 70.5v114q0 39 11 73t34.5 58.5t59 39t83.5 14.5q31 0 56 -6.5t42.5 -15.5t27 -19.5t9.5 -19.5t-6.5 -16.5t-16.5 -7.5q-6 0 -13.5 6t-19.5 13.5t-31 13.5t-47 6q-69 0 -104.5 -37t-35.5 -102v-114q0 -65 35.5 -102t105.5 -37q30 0 49.5 6t32 13.5 t20.5 14t15 6.5q9 0 15.5 -8t6.5 -16z"/>
<glyph glyph-name="egrave" horiz-adv-x="451" unicode="è" d="M169 654q-11 7 -11 20q0 8 5.5 15.5t14.5 7.5q3 0 7 -2l107 -61q9 -4 9 -15q0 -9 -6.5 -16t-15.5 -7q-4 0 -10 3zM310 261q34 0 45 6.5t11 29.5q0 25 -9.5 50t-27.5 44t-42.5 31t-54.5 12q-29 0 -53.5 -10.5t-42.5 -28.5t-28.5 -42t-10.5 -51v-41h213zM232 478 q36 0 69 -13.5t58 -37.5t40 -57.5t15 -72.5q0 -28 -7 -43.5t-19 -23t-27.5 -9t-31.5 -1.5h-232v-42q0 -32 12 -58t33.5 -44t51 -27.5t64.5 -9.5q31 0 50.5 6t32 13.5t20.5 14t16 6.5q9 0 16 -8t7 -16t-10 -18.5t-28.5 -20t-45.5 -16t-60 -6.5q-46 0 -84 13.5t-65.5 37.5 t-43 58t-15.5 76v119q0 37 14.5 69.5t39.5 57t58.5 39t71.5 14.5z"/>
<glyph glyph-name="eacute" horiz-adv-x="451" unicode="é" d="M310 261q34 0 45 6.5t11 29.5q0 25 -9.5 50t-27.5 44t-42.5 31t-54.5 12q-29 0 -53.5 -10.5t-42.5 -28.5t-28.5 -42t-10.5 -51v-41h213zM232 478q36 0 69 -13.5t58 -37.5t40 -57.5t15 -72.5q0 -28 -7 -43.5t-19 -23t-27.5 -9t-31.5 -1.5h-232v-42q0 -32 12 -58t33.5 -44 t51 -27.5t64.5 -9.5q31 0 50.5 6t32 13.5t20.5 14t16 6.5q9 0 16 -8t7 -16t-10 -18.5t-28.5 -20t-45.5 -16t-60 -6.5q-46 0 -84 13.5t-65.5 37.5t-43 58t-15.5 76v119q0 37 14.5 69.5t39.5 57t58.5 39t71.5 14.5zM192 599q-5 -3 -10 -3q-9 0 -15.5 7t-6.5 16q0 11 9 15 l107 61q4 2 8 2q9 0 14 -7.5t5 -15.5q0 -13 -11 -20z"/>
<glyph glyph-name="ecircumflex" horiz-adv-x="451" unicode="ê" d="M310 261q34 0 45 6.5t11 29.5q0 25 -9.5 50t-27.5 44t-42.5 31t-54.5 12q-29 0 -53.5 -10.5t-42.5 -28.5t-28.5 -42t-10.5 -51v-41h213zM232 478q36 0 69 -13.5t58 -37.5t40 -57.5t15 -72.5q0 -28 -7 -43.5t-19 -23t-27.5 -9t-31.5 -1.5h-232v-42q0 -32 12 -58t33.5 -44 t51 -27.5t64.5 -9.5q31 0 50.5 6t32 13.5t20.5 14t16 6.5q9 0 16 -8t7 -16t-10 -18.5t-28.5 -20t-45.5 -16t-60 -6.5q-46 0 -84 13.5t-65.5 37.5t-43 58t-15.5 76v119q0 37 14.5 69.5t39.5 57t58.5 39t71.5 14.5zM127 599l-4 -2t-4 -1q-8 0 -14 6.5t-6 16.5q0 11 11 17 l104 56q8 5 17 5t17 -5l104 -55q11 -6 11 -20q0 -8 -5.5 -14t-13.5 -6q-2 0 -4.5 1t-4.5 2l-104 55z"/>
<glyph glyph-name="edieresis" horiz-adv-x="451" unicode="ë" d="M310 261q34 0 45 6.5t11 29.5q0 25 -9.5 50t-27.5 44t-42.5 31t-54.5 12q-29 0 -53.5 -10.5t-42.5 -28.5t-28.5 -42t-10.5 -51v-41h213zM232 478q36 0 69 -13.5t58 -37.5t40 -57.5t15 -72.5q0 -28 -7 -43.5t-19 -23t-27.5 -9t-31.5 -1.5h-232v-42q0 -32 12 -58t33.5 -44 t51 -27.5t64.5 -9.5q31 0 50.5 6t32 13.5t20.5 14t16 6.5q9 0 16 -8t7 -16t-10 -18.5t-28.5 -20t-45.5 -16t-60 -6.5q-46 0 -84 13.5t-65.5 37.5t-43 58t-15.5 76v119q0 37 14.5 69.5t39.5 57t58.5 39t71.5 14.5zM290 662q14 0 23 -9t9 -23t-9 -23.5t-23 -9.5q-15 0 -24 9.5 t-9 23.5t9 23t24 9zM173 662q14 0 23 -9t9 -23t-9 -23.5t-23 -9.5t-23.5 9.5t-9.5 23.5t9.5 23t23.5 9z"/>
<glyph glyph-name="igrave" horiz-adv-x="181" unicode="ì" d="M26 654q-11 7 -11 20q0 8 5.5 15.5t14.5 7.5q3 0 7 -2l107 -61q9 -4 9 -15q0 -9 -6.5 -16t-15.5 -7q-4 0 -10 3zM90 472q11 0 18 -5.5t7 -14.5v-430q0 -8 -7 -15t-18 -7t-17.5 7t-6.5 15v430q0 9 6.5 14.5t17.5 5.5z"/>
<glyph glyph-name="iacute" horiz-adv-x="181" unicode="í" d="M90 472q11 0 18 -5.5t7 -14.5v-430q0 -8 -7 -15t-18 -7t-17.5 7t-6.5 15v430q0 9 6.5 14.5t17.5 5.5zM52 599q-5 -3 -10 -3q-9 0 -15.5 7t-6.5 16q0 11 9 15l107 61q4 2 8 2q9 0 14 -7.5t5 -15.5q0 -13 -11 -20z"/>
<glyph glyph-name="icircumflex" horiz-adv-x="181" unicode="î" d="M90 472q11 0 18 -5.5t7 -14.5v-430q0 -8 -7 -15t-18 -7t-17.5 7t-6.5 15v430q0 9 6.5 14.5t17.5 5.5zM-14 599l-4 -2t-4 -1q-8 0 -14 6.5t-6 16.5q0 11 11 17l104 56q8 5 17 5t17 -5l104 -55q11 -6 11 -20q0 -8 -5.5 -14t-13.5 -6q-2 0 -4.5 1t-4.5 2l-104 55z"/>
<glyph glyph-name="idieresis" horiz-adv-x="181" unicode="ï" d="M90 472q11 0 18 -5.5t7 -14.5v-430q0 -8 -7 -15t-18 -7t-17.5 7t-6.5 15v430q0 9 6.5 14.5t17.5 5.5zM150 662q14 0 23 -9t9 -23t-9 -23.5t-23 -9.5q-15 0 -24 9.5t-9 23.5t9 23t24 9zM33 662q14 0 23 -9t9 -23t-9 -23.5t-23 -9.5t-23.5 9.5t-9.5 23.5t9.5 23t23.5 9z "/>
<glyph glyph-name="eth" horiz-adv-x="475" unicode="ð" d="M97 179q0 -27 10.5 -52t28.5 -44.5t42.5 -31t52.5 -11.5t52.5 11.5t43 31t29 44.5t10.5 52v120q0 26 -11 50t-29.5 42.5t-43 29.5t-52.5 11t-52.5 -11.5t-42.5 -31t-28 -44t-10 -50.5v-116zM330 651q37 -52 61 -124.5t24 -164.5v-183q0 -36 -15 -69.5t-40.5 -59 t-58.5 -41t-70 -15.5t-70.5 15t-58.5 40.5t-39.5 59t-14.5 70.5v116q0 37 14 70t38 58t56 40t69 15q21 0 43.5 -5.5t42 -16.5t34 -26.5t21.5 -35.5q-7 77 -28 134.5t-50 97.5l-91 -52q-4 -4 -10 -4q-8 0 -14.5 8t-6.5 16q0 5 2.5 9.5t7.5 6.5l85 49q-29 30 -61 44.5 t-61 14.5q-7 2 -10.5 7.5t-3.5 13.5q0 9 6.5 18t23.5 9q35 0 74.5 -20t75.5 -61l76 44q6 2 8 2q8 0 15 -7t7 -15q0 -11 -10 -17z"/>
<glyph glyph-name="ntilde" d="M115 22q0 -8 -7 -15t-18 -7t-17.5 7t-6.5 15v430q0 9 6.5 14.5t17.5 5.5q10 0 17 -5.5t7 -14.5v-50q16 29 49.5 52.5t84.5 23.5q36 0 68.5 -14.5t57 -39t39 -58t14.5 -71.5v-273q0 -11 -8 -16.5t-17 -5.5t-16.5 5.5t-7.5 16.5v273q0 26 -10.5 50.5t-29 44t-43 31 t-51.5 11.5q-24 0 -47 -9.5t-41.5 -27t-29.5 -43t-11 -57.5v-273zM178 650q-16 0 -27 -5t-19 -11.5t-13.5 -11.5t-11.5 -5q-8 0 -12 6.5t-4 14.5q0 12 9 21.5t22.5 17t29 11.5t28.5 4q19 0 34 -5.5t29.5 -12.5t30 -12.5t35.5 -5.5q17 0 27 5t17 10.5t12 10.5t11 5 q8 0 12.5 -6t4.5 -13q0 -14 -9 -24t-22 -16.5t-27.5 -10t-25.5 -3.5q-19 0 -34 5.5t-30 12.5t-30.5 12.5t-36.5 5.5z" unicode="ñ"/>
<glyph glyph-name="ograve" horiz-adv-x="461" unicode="ò" d="M168 654q-11 7 -11 20q0 8 5.5 15.5t14.5 7.5q3 0 7 -2l107 -61q9 -4 9 -15q0 -9 -6.5 -16t-15.5 -7q-4 0 -10 3zM365 295q0 26 -10.5 50.5t-29 44t-43 31t-52.5 11.5t-52.5 -11.5t-42.5 -31t-28.5 -44t-10.5 -50.5v-116q0 -27 10.5 -52t28.5 -44.5t42.5 -31t52.5 -11.5 t52.5 11.5t43 31t29 44.5t10.5 52v116zM230 478q37 0 70 -14.5t58.5 -39t40.5 -58t15 -71.5v-116q0 -36 -15 -69.5t-40.5 -59t-58.5 -41t-70 -15.5t-70 15t-58 40.5t-40 59t-15 70.5v116q0 37 14.5 70t39.5 58t58 40t71 15z"/>
<glyph glyph-name="oacute" horiz-adv-x="461" unicode="ó" d="M365 295q0 26 -10.5 50.5t-29 44t-43 31t-52.5 11.5t-52.5 -11.5t-42.5 -31t-28.5 -44t-10.5 -50.5v-116q0 -27 10.5 -52t28.5 -44.5t42.5 -31t52.5 -11.5t52.5 11.5t43 31t29 44.5t10.5 52v116zM230 478q37 0 70 -14.5t58.5 -39t40.5 -58t15 -71.5v-116q0 -36 -15 -69.5 t-40.5 -59t-58.5 -41t-70 -15.5t-70 15t-58 40.5t-40 59t-15 70.5v116q0 37 14.5 70t39.5 58t58 40t71 15zM191 599q-5 -3 -10 -3q-9 0 -15.5 7t-6.5 16q0 11 9 15l107 61q4 2 8 2q9 0 14 -7.5t5 -15.5q0 -13 -11 -20z"/>
<glyph glyph-name="ocircumflex" horiz-adv-x="461" unicode="ô" d="M365 295q0 26 -10.5 50.5t-29 44t-43 31t-52.5 11.5t-52.5 -11.5t-42.5 -31t-28.5 -44t-10.5 -50.5v-116q0 -27 10.5 -52t28.5 -44.5t42.5 -31t52.5 -11.5t52.5 11.5t43 31t29 44.5t10.5 52v116zM230 478q37 0 70 -14.5t58.5 -39t40.5 -58t15 -71.5v-116q0 -36 -15 -69.5 t-40.5 -59t-58.5 -41t-70 -15.5t-70 15t-58 40.5t-40 59t-15 70.5v116q0 37 14.5 70t39.5 58t58 40t71 15zM126 599l-4 -2t-4 -1q-8 0 -14 6.5t-6 16.5q0 11 11 17l104 56q8 5 17 5t17 -5l104 -55q11 -6 11 -20q0 -8 -5.5 -14t-13.5 -6q-2 0 -4.5 1t-4.5 2l-104 55z"/>
<glyph glyph-name="otilde" horiz-adv-x="461" unicode="õ" d="M167 650q-16 0 -27 -5t-19 -11.5t-13.5 -11.5t-11.5 -5q-8 0 -12 6.5t-4 14.5q0 12 9 21.5t22.5 17t29 11.5t28.5 4q19 0 34 -5.5t29.5 -12.5t30 -12.5t35.5 -5.5q17 0 27 5t17 10.5t12 10.5t11 5q8 0 12.5 -6t4.5 -13q0 -14 -9 -24t-22 -16.5t-27.5 -10t-25.5 -3.5 q-19 0 -34 5.5t-30 12.5t-30.5 12.5t-36.5 5.5zM365 295q0 26 -10.5 50.5t-29 44t-43 31t-52.5 11.5t-52.5 -11.5t-42.5 -31t-28.5 -44t-10.5 -50.5v-116q0 -27 10.5 -52t28.5 -44.5t42.5 -31t52.5 -11.5t52.5 11.5t43 31t29 44.5t10.5 52v116zM230 478q37 0 70 -14.5 t58.5 -39t40.5 -58t15 -71.5v-116q0 -36 -15 -69.5t-40.5 -59t-58.5 -41t-70 -15.5t-70 15t-58 40.5t-40 59t-15 70.5v116q0 37 14.5 70t39.5 58t58 40t71 15z"/>
<glyph glyph-name="odieresis" horiz-adv-x="461" unicode="ö" d="M365 295q0 26 -10.5 50.5t-29 44t-43 31t-52.5 11.5t-52.5 -11.5t-42.5 -31t-28.5 -44t-10.5 -50.5v-116q0 -27 10.5 -52t28.5 -44.5t42.5 -31t52.5 -11.5t52.5 11.5t43 31t29 44.5t10.5 52v116zM230 478q37 0 70 -14.5t58.5 -39t40.5 -58t15 -71.5v-116q0 -36 -15 -69.5 t-40.5 -59t-58.5 -41t-70 -15.5t-70 15t-58 40.5t-40 59t-15 70.5v116q0 37 14.5 70t39.5 58t58 40t71 15zM289 662q14 0 23 -9t9 -23t-9 -23.5t-23 -9.5q-15 0 -24 9.5t-9 23.5t9 23t24 9zM172 662q14 0 23 -9t9 -23t-9 -23.5t-23 -9.5t-23.5 9.5t-9.5 23.5t9.5 23t23.5 9z "/>
<glyph glyph-name="divide" horiz-adv-x="458" unicode="÷" d="M226 448q18 0 31.5 -13.5t13.5 -32.5q0 -18 -13.5 -31.5t-31.5 -13.5q-20 0 -33.5 13.5t-13.5 31.5q0 19 13.5 32.5t33.5 13.5zM226 124q18 0 31.5 -13.5t13.5 -32.5q0 -18 -13.5 -31.5t-31.5 -13.5q-20 0 -33.5 13.5t-13.5 31.5q0 19 13.5 32.5t33.5 13.5zM48 240 q0 10 6 16.5t15 6.5h319q8 0 15 -6.5t7 -16.5t-7 -16t-15 -6h-319q-9 0 -15 6t-6 16z"/>
<glyph glyph-name="oslash" horiz-adv-x="461" unicode="ø" d="M96 179q0 -24 8.5 -46.5t23.5 -41.5l172 320q-32 21 -70 21q-28 0 -52.5 -11.5t-42.5 -31t-28.5 -44t-10.5 -50.5v-116zM365 295q0 24 -9.5 47.5t-26.5 42.5l-174 -320q33 -25 75 -25q28 0 52.5 11.5t43 31t29 44.5t10.5 52v116zM230 478q25 0 48.5 -7t43.5 -19l27 49 q4 8 14 8q7 0 13.5 -6t6.5 -14q0 -6 -4 -13l-26 -47q28 -25 44.5 -59.5t16.5 -74.5v-116q0 -36 -15 -69.5t-40.5 -59t-58.5 -41t-70 -15.5q-27 0 -51.5 8t-46.5 22l-24 -45q-6 -11 -17 -11q-7 0 -12.5 4.5t-5.5 12.5q0 5 3 10l28 52q-26 26 -41.5 60t-15.5 72v116 q0 37 14.5 70t39.5 58t58 40t71 15z"/>
<glyph glyph-name="ugrave" d="M181 654q-11 7 -11 20q0 8 5.5 15.5t14.5 7.5q3 0 7 -2l107 -61q9 -4 9 -15q0 -9 -6.5 -16t-15.5 -7q-4 0 -10 3zM244 -6q-38 0 -71.5 15t-58 40t-39 58.5t-14.5 69.5v274q0 8 7 14.5t18 6.5q9 0 16.5 -6.5t7.5 -14.5v-274q0 -26 10.5 -51t28.5 -44t42.5 -30.5 t52.5 -11.5t52.5 11.5t42.5 30.5t28.5 43.5t10.5 51.5v275q0 8 7.5 14t17.5 6q11 0 17.5 -6t6.5 -14v-275q0 -37 -14.5 -70t-39.5 -58t-58.5 -40t-70.5 -15z" unicode="ù"/>
<glyph glyph-name="uacute" d="M244 -6q-38 0 -71.5 15t-58 40t-39 58.5t-14.5 69.5v274q0 8 7 14.5t18 6.5q9 0 16.5 -6.5t7.5 -14.5v-274q0 -26 10.5 -51t28.5 -44t42.5 -30.5t52.5 -11.5t52.5 11.5t42.5 30.5t28.5 43.5t10.5 51.5v275q0 8 7.5 14t17.5 6q11 0 17.5 -6t6.5 -14v-275q0 -37 -14.5 -70 t-39.5 -58t-58.5 -40t-70.5 -15zM206 599q-5 -3 -10 -3q-9 0 -15.5 7t-6.5 16q0 11 9 15l107 61q4 2 8 2q9 0 14 -7.5t5 -15.5q0 -13 -11 -20z" unicode="ú"/>
<glyph glyph-name="ucircumflex" d="M244 -6q-38 0 -71.5 15t-58 40t-39 58.5t-14.5 69.5v274q0 8 7 14.5t18 6.5q9 0 16.5 -6.5t7.5 -14.5v-274q0 -26 10.5 -51t28.5 -44t42.5 -30.5t52.5 -11.5t52.5 11.5t42.5 30.5t28.5 43.5t10.5 51.5v275q0 8 7.5 14t17.5 6q11 0 17.5 -6t6.5 -14v-275q0 -37 -14.5 -70 t-39.5 -58t-58.5 -40t-70.5 -15zM140 599l-4 -2t-4 -1q-8 0 -14 6.5t-6 16.5q0 11 11 17l104 56q8 5 17 5t17 -5l104 -55q11 -6 11 -20q0 -8 -5.5 -14t-13.5 -6q-2 0 -4.5 1t-4.5 2l-104 55z" unicode="û"/>
<glyph glyph-name="udieresis" d="M244 -6q-38 0 -71.5 15t-58 40t-39 58.5t-14.5 69.5v274q0 8 7 14.5t18 6.5q9 0 16.5 -6.5t7.5 -14.5v-274q0 -26 10.5 -51t28.5 -44t42.5 -30.5t52.5 -11.5t52.5 11.5t42.5 30.5t28.5 43.5t10.5 51.5v275q0 8 7.5 14t17.5 6q11 0 17.5 -6t6.5 -14v-275q0 -37 -14.5 -70 t-39.5 -58t-58.5 -40t-70.5 -15zM303 662q14 0 23 -9t9 -23t-9 -23.5t-23 -9.5q-15 0 -24 9.5t-9 23.5t9 23t24 9zM186 662q14 0 23 -9t9 -23t-9 -23.5t-23 -9.5t-23.5 9.5t-9.5 23.5t9.5 23t23.5 9z" unicode="ü"/>
<glyph glyph-name="yacute" horiz-adv-x="408" unicode="ý" d="M170 599q-5 -3 -10 -3q-9 0 -15.5 7t-6.5 16q0 11 9 15l107 61q4 2 8 2q9 0 14 -7.5t5 -15.5q0 -13 -11 -20zM19 447q-2 6 -2 8q0 10 9 17t20 7q6 0 11.5 -3.5t7.5 -9.5l141 -385l137 385q6 13 19 13q9 0 18.5 -6.5t9.5 -17.5q0 -5 -1 -8l-158 -431q-14 -39 -31.5 -83 t-40 -81.5t-52 -62t-66.5 -24.5q-9 0 -16 5.5t-7 17.5q0 9 4 16t14 7q25 0 46.5 18t39.5 47.5t33 66t26 73.5z"/>
<glyph glyph-name="thorn" horiz-adv-x="475" unicode="þ" d="M379 295q0 26 -10.5 50.5t-29 44t-43 31t-52.5 11.5q-24 0 -47 -9.5t-41.5 -27t-29.5 -43t-11 -57.5v-150q0 -12 10 -30t27.5 -34.5t41.5 -28.5t52 -12q27 0 51 11.5t42 31t29 44.5t11 52v116zM90 766q11 0 18 -6t7 -15v-343q17 29 50 52.5t83 23.5q37 0 69.5 -14.5 t57 -39t39 -58t14.5 -71.5v-116q0 -36 -14.5 -69.5t-39 -59t-56.5 -41t-68 -15.5q-46 0 -82 22.5t-53 53.5v-283q0 -8 -7 -15t-18 -7t-17.5 7t-6.5 15v958q0 9 6.5 15t17.5 6z"/>
</font>
</defs>
</svg>
